<svg width="24" height="24" viewBox="0 0 24 24" fill="none" xmlns="http://www.w3.org/2000/svg">
<rect width="24" height="24" rx="4" fill="#EBBA54"/>
<path d="M17 12.8333H12.8333V17C12.8333 17.4583 12.4583 17.8333 12 17.8333C11.5416 17.8333 11.1666 17.4583 11.1666 17V12.8333H6.99996C6.54163 12.8333 6.16663 12.4583 6.16663 12C6.16663 11.5416 6.54163 11.1666 6.99996 11.1666H11.1666V6.99996C11.1666 6.54163 11.5416 6.16663 12 6.16663C12.4583 6.16663 12.8333 6.54163 12.8333 6.99996V11.1666H17C17.4583 11.1666 17.8333 11.5416 17.8333 12C17.8333 12.4583 17.4583 12.8333 17 12.8333Z" fill="white"/>
</svg>
