<svg width="24" height="24" viewBox="0 0 24 24" fill="none" xmlns="http://www.w3.org/2000/svg">
<rect width="24" height="24" rx="12" fill="#9E9E9E"/>
<path d="M11.957 2.5C11.0548 2.5 10.2335 2.93822 9.80795 3.62319L9.62071 3.92483L9.29728 3.75897C8.99514 3.60246 8.65043 3.51953 8.30573 3.51953C7.1014 3.51953 6.12262 4.47768 6.12262 5.68259C6.12262 6.75985 6.91416 7.65824 7.9738 7.82085L8.29722 7.86963V10.0404C10.7612 9.58918 13.2337 9.56885 15.7019 10.0404V7.20701L15.9062 7.10132C16.5743 6.76391 17.0169 6.04032 17.0169 5.22526C17.0169 4.0545 16.136 3.14717 15.0849 3.14717C14.8083 3.14717 14.5316 3.21262 14.2806 3.33904L14.0167 3.46913L13.821 3.26221C13.3614 2.78375 12.6805 2.5 11.957 2.5ZM11.9996 10.4185C10.9101 10.4185 9.82497 10.516 8.73555 10.703C8.69725 10.9469 8.68022 11.199 8.68022 11.4591C8.68022 12.638 9.07174 13.7031 9.68454 14.4551C10.2973 15.2072 11.1102 15.6462 11.9996 15.6462C12.889 15.6462 13.7018 15.2072 14.3146 14.4551C14.9274 13.7031 15.3189 12.638 15.3189 11.4591C15.3189 11.199 15.2976 10.9429 15.2636 10.699C14.1742 10.5079 13.089 10.4144 11.9996 10.4185ZM9.98669 15.7397L6.19071 16.9471L5 21.5H14.7912L14.1742 17.3658L14.9317 17.2601L15.5657 21.5H19L17.8084 16.9471L14.0125 15.7397C13.4252 16.1422 12.7358 16.3779 11.9996 16.3779C11.2634 16.3779 10.574 16.1422 9.98669 15.7397ZM12.9358 17.882C12.9917 17.882 13.047 17.8925 13.0987 17.913C13.1503 17.9334 13.1972 17.9633 13.2367 18.0011C13.2762 18.0388 13.3076 18.0837 13.329 18.133C13.3504 18.1823 13.3614 18.2352 13.3614 18.2885C13.3614 18.3419 13.3504 18.3948 13.329 18.4441C13.3076 18.4934 13.2762 18.5383 13.2367 18.576C13.1972 18.6138 13.1503 18.6437 13.0987 18.6641C13.047 18.6846 12.9917 18.6951 12.9358 18.6951C12.8799 18.6951 12.8246 18.6846 12.7729 18.6641C12.7213 18.6437 12.6744 18.6138 12.6349 18.576C12.5954 18.5383 12.564 18.4934 12.5426 18.4441C12.5212 18.3948 12.5102 18.3419 12.5102 18.2885C12.5102 18.2352 12.5212 18.1823 12.5426 18.133C12.564 18.0837 12.5954 18.0388 12.6349 18.0011C12.6744 17.9633 12.7213 17.9334 12.7729 17.913C12.8246 17.8925 12.8799 17.882 12.9358 17.882ZM13.2337 19.752C13.3466 19.752 13.4548 19.7948 13.5346 19.8711C13.6144 19.9473 13.6592 20.0507 13.6592 20.1585C13.6592 20.2663 13.6144 20.3697 13.5346 20.446C13.4548 20.5222 13.3466 20.565 13.2337 20.565C13.1208 20.565 13.0126 20.5222 12.9328 20.446C12.853 20.3697 12.8081 20.2663 12.8081 20.1585C12.8081 20.0507 12.853 19.9473 12.9328 19.8711C13.0126 19.7948 13.1208 19.752 13.2337 19.752Z" fill="white"/>
</svg>
