<svg width="162" height="160" viewBox="0 0 162 160" fill="none" xmlns="http://www.w3.org/2000/svg">
<path d="M81 160C125.224 160 161.074 124.183 161.074 80C161.074 35.8172 125.224 0 81 0C36.7765 0 0.92627 35.8172 0.92627 80C0.92627 124.183 36.7765 160 81 160Z" fill="#F9E099"/>
<path opacity="0.2" d="M81 138.392C67.4783 138.392 54.3749 133.708 43.9225 125.138C33.4702 116.568 26.3155 104.642 23.6776 91.3918C21.0397 78.1421 23.0818 64.3885 29.456 52.4744C35.8301 40.5604 46.1419 31.223 58.6343 26.0533C71.1268 20.8835 85.0269 20.2013 97.9664 24.1229C110.906 28.0444 122.084 36.3271 129.596 47.5597C137.108 58.7922 140.49 72.2797 139.165 85.7239C137.839 99.1681 131.889 111.737 122.328 121.29C116.913 126.729 110.472 131.041 103.379 133.977C96.2846 136.912 88.6783 138.413 81 138.392ZM81 25.209C50.7602 25.209 26.1585 49.7881 26.1585 80C26.1585 110.212 50.7602 134.791 81 134.791C111.24 134.791 135.841 110.212 135.841 80C135.841 49.7881 111.24 25.209 81 25.209Z" fill="#F9E099"/>
<path d="M81 136.592C112.284 136.592 137.644 111.255 137.644 80C137.644 48.7453 112.284 23.4084 81 23.4084C49.7165 23.4084 24.3562 48.7453 24.3562 80C24.3562 111.255 49.7165 136.592 81 136.592Z" fill="#CA973D"/>
<path d="M38.8753 57.3714C38.4457 56.5308 38.1862 55.6139 38.1115 54.673C38.0369 53.7321 38.1486 52.7858 38.4402 51.8881C38.7319 50.9904 39.1978 50.1589 39.8113 49.4412C40.4248 48.7235 41.1738 48.1336 42.0156 47.7053C42.8574 47.277 43.7755 47.0187 44.7173 46.9451C45.6591 46.8715 46.6062 46.9841 47.5044 47.2764C48.4027 47.5688 49.2344 48.0351 49.9521 48.6488C50.6698 49.2625 51.2595 50.0115 51.6873 50.8529L67.6906 82.2496C68.1202 83.0902 68.3797 84.0071 68.4544 84.948C68.529 85.8889 68.4173 86.8352 68.1257 87.7329C67.834 88.6306 67.3681 89.4621 66.7546 90.1798C66.1412 90.8975 65.3921 91.4874 64.5503 91.9157C63.7085 92.3439 62.7904 92.6023 61.8486 92.6759C60.9068 92.7495 59.9597 92.6369 59.0615 92.3446C58.1632 92.0522 57.3315 91.5859 56.6138 90.9722C55.896 90.3585 55.3064 89.6095 54.8786 88.768L38.8753 57.3714Z" fill="white"/>
<path opacity="0.2" d="M40.6602 60.8733L39.9216 59.4242C43.6078 56.5627 47.9364 54.4582 52.7335 52.9058L53.4722 54.3549C48.2802 55.4351 43.863 57.4341 40.6602 60.8733Z" fill="#F9E099"/>
<path opacity="0.2" d="M44.1071 67.6357L43.3685 66.1866C47.0547 63.325 51.3833 61.2205 56.1804 59.6682L56.9191 61.1172C51.7271 62.1974 47.3099 64.1965 44.1071 67.6357Z" fill="#F9E099"/>
<path opacity="0.2" d="M47.5539 74.398L46.8153 72.949C50.5015 70.0874 54.8301 67.9829 59.6273 66.4305L60.3659 67.8796C55.1739 68.9598 50.7567 70.9589 47.5539 74.398Z" fill="#F9E099"/>
<path opacity="0.2" d="M51.0008 81.1603L50.2622 79.7113C53.9484 76.8497 58.277 74.7452 63.0742 73.1928L63.8128 74.6419C58.6208 75.7221 54.2036 77.7211 51.0008 81.1603Z" fill="#F9E099"/>
<path opacity="0.2" d="M54.4477 87.9227L53.7091 86.4737C57.3953 83.6121 61.7239 81.5076 66.5211 79.9552L67.2597 81.4043C62.0677 82.4845 57.6505 84.4835 54.4477 87.9227Z" fill="#F9E099"/>
<path d="M26.869 69.1251C26.4395 68.2846 26.1801 67.3677 26.1055 66.4269C26.0309 65.4861 26.1427 64.5398 26.4344 63.6422C26.726 62.7445 27.1919 61.9131 27.8054 61.1955C28.4189 60.4778 29.1679 59.888 30.0097 59.4598C30.8514 59.0315 31.7694 58.7732 32.7111 58.6996C33.6529 58.6259 34.5999 58.7385 35.4981 59.0307C36.3963 59.323 37.228 59.7892 37.9457 60.4028C38.6634 61.0164 39.2531 61.7653 39.681 62.6067L55.6843 94.0034C56.5471 95.7005 56.7003 97.6705 56.1101 99.4804C55.52 101.29 54.2349 102.792 52.5371 103.656C50.8393 104.52 48.8677 104.675 47.0555 104.087C45.2433 103.499 43.7387 102.217 42.8723 100.522L26.869 69.1251Z" fill="white"/>
<path opacity="0.2" d="M28.654 72.627L27.9154 71.178C31.6016 68.3164 35.9302 66.2119 40.7274 64.6595L41.466 66.1086C36.274 67.1888 31.8568 69.1878 28.654 72.627Z" fill="#F9E099"/>
<path opacity="0.2" d="M32.1009 79.3894L31.3623 77.9403C35.0485 75.0788 39.3771 72.9743 44.1743 71.4219L44.9129 72.871C39.7209 73.9512 35.3037 75.9502 32.1009 79.3894Z" fill="#F9E099"/>
<path opacity="0.2" d="M35.5478 86.1517L34.8091 84.7027C38.4953 81.8411 42.824 79.7366 47.6211 78.1842L48.3597 79.6333C43.1677 80.7135 38.7505 82.7126 35.5478 86.1517Z" fill="#F9E099"/>
<path opacity="0.2" d="M38.9947 92.9141L38.2561 91.465C41.9423 88.6035 46.2709 86.499 51.0681 84.9466L51.8067 86.3957C46.6147 87.4759 42.1975 89.4749 38.9947 92.9141Z" fill="#F9E099"/>
<path opacity="0.2" d="M42.4415 99.6765L41.7029 98.2274C45.3891 95.3659 49.7177 93.2614 54.5148 91.709L55.2535 93.1581C50.0615 94.2383 45.6443 96.2373 42.4415 99.6765Z" fill="#F9E099"/>
<path d="M118.848 81.8006L118.899 81.8007C120.623 81.8151 122.311 81.3102 123.743 80.3518C125.175 79.3934 126.285 78.0259 126.927 76.4279C128.249 73.0901 128.915 69.5293 128.889 65.9399C128.799 50.7474 116.428 38.2836 101.223 38.0735C94.747 37.9829 88.4393 40.1323 83.3686 44.1574C78.298 48.1825 74.7766 53.8355 73.4012 60.1582C72.0258 66.4809 72.8811 73.0843 75.8222 78.849C78.7633 84.6136 83.6091 89.1848 89.5383 91.7877C91.1051 92.4808 92.8451 92.6846 94.53 92.3725C96.2148 92.0603 97.7659 91.2468 98.9799 90.0385C101.584 87.4234 104.68 85.3491 108.09 83.9353C111.5 82.5214 115.156 81.7959 118.848 81.8006Z" fill="#F3D07D"/>
<path d="M104.43 73.3119C109.549 73.3119 113.699 69.1659 113.699 64.0515C113.699 58.9371 109.549 54.791 104.43 54.791C99.3108 54.791 95.1609 58.9371 95.1609 64.0515C95.1609 69.1659 99.3108 73.3119 104.43 73.3119Z" fill="white"/>
<path d="M84.285 63.0101C84.8881 63.0101 85.377 62.5217 85.377 61.9192C85.377 61.3167 84.8881 60.8283 84.285 60.8283C83.682 60.8283 83.1931 61.3167 83.1931 61.9192C83.1931 62.5217 83.682 63.0101 84.285 63.0101Z" fill="#CA973D"/>
<path d="M48.239 64.0391C48.842 64.0391 49.3309 63.5506 49.3309 62.9481C49.3309 62.3456 48.842 61.8572 48.239 61.8572C47.6359 61.8572 47.147 62.3456 47.147 62.9481C47.147 63.5506 47.6359 64.0391 48.239 64.0391Z" fill="#CA973D"/>
<path d="M90.1046 51.7042C90.7076 51.7042 91.1965 51.2158 91.1965 50.6133C91.1965 50.0108 90.7076 49.5223 90.1046 49.5223C89.5015 49.5223 89.0126 50.0108 89.0126 50.6133C89.0126 51.2158 89.5015 51.7042 90.1046 51.7042Z" fill="#CA973D"/>
<path d="M90.0736 83.1488C90.6766 83.1488 91.1655 82.6603 91.1655 82.0578C91.1655 81.4553 90.6766 80.9669 90.0736 80.9669C89.4705 80.9669 88.9816 81.4553 88.9816 82.0578C88.9816 82.6603 89.4705 83.1488 90.0736 83.1488Z" fill="#CA973D"/>
<path d="M111.701 49.4511C112.304 49.4511 112.793 48.9627 112.793 48.3602C112.793 47.7576 112.304 47.2692 111.701 47.2692C111.098 47.2692 110.609 47.7576 110.609 48.3602C110.609 48.9627 111.098 49.4511 111.701 49.4511Z" fill="#CA973D"/>
<path d="M41.1539 79.2902C41.7569 79.2902 42.2458 78.8018 42.2458 78.1993C42.2458 77.5968 41.7569 77.1084 41.1539 77.1084C40.5508 77.1084 40.062 77.5968 40.062 78.1993C40.062 78.8018 40.5508 79.2902 41.1539 79.2902Z" fill="#CA973D"/>
<path d="M49.1355 94.9816C49.7386 94.9816 50.2274 94.4932 50.2274 93.8907C50.2274 93.2882 49.7386 92.7998 49.1355 92.7998C48.5325 92.7998 48.0436 93.2882 48.0436 93.8907C48.0436 94.4932 48.5325 94.9816 49.1355 94.9816Z" fill="#CA973D"/>
<path d="M99.2805 100.064C101.556 100.064 103.4 98.2216 103.4 95.9485C103.4 93.6754 101.556 91.8328 99.2805 91.8328C97.0053 91.8328 95.1609 93.6754 95.1609 95.9485C95.1609 98.2216 97.0053 100.064 99.2805 100.064Z" fill="white"/>
<path opacity="0.2" d="M102.37 96.2058C102.37 97.0245 102.045 97.8096 101.465 98.3885C100.886 98.9674 100.1 99.2926 99.2805 99.2926C98.461 99.2926 97.6752 98.9674 97.0957 98.3885C96.5163 97.8096 96.1908 97.0245 96.1908 96.2058" fill="#F9E099"/>
<path opacity="0.2" d="M96.1908 95.6913C96.1908 94.8726 96.5163 94.0875 97.0957 93.5086C97.6752 92.9297 98.461 92.6045 99.2805 92.6045C100.1 92.6045 100.886 92.9297 101.465 93.5086C102.045 94.0875 102.37 94.8726 102.37 95.6913" fill="#F9E099"/>
<path d="M97.7356 94.9196C97.8778 94.9196 97.9931 94.7468 97.9931 94.5337C97.9931 94.3206 97.8778 94.1479 97.7356 94.1479C97.5934 94.1479 97.4781 94.3206 97.4781 94.5337C97.4781 94.7468 97.5934 94.9196 97.7356 94.9196Z" fill="white"/>
<path d="M99.2805 94.4052C99.4227 94.4052 99.538 94.2324 99.538 94.0193C99.538 93.8062 99.4227 93.6335 99.2805 93.6335C99.1383 93.6335 99.0231 93.8062 99.0231 94.0193C99.0231 94.2324 99.1383 94.4052 99.2805 94.4052Z" fill="white"/>
<path d="M99.2805 97.7492C99.4227 97.7492 99.538 97.5764 99.538 97.3633C99.538 97.1502 99.4227 96.9775 99.2805 96.9775C99.1383 96.9775 99.0231 97.1502 99.0231 97.3633C99.0231 97.5764 99.1383 97.7492 99.2805 97.7492Z" fill="white"/>
<path d="M100.825 95.6913C100.967 95.6913 101.083 95.5186 101.083 95.3055C101.083 95.0924 100.967 94.9196 100.825 94.9196C100.683 94.9196 100.568 95.0924 100.568 95.3055C100.568 95.5186 100.683 95.6913 100.825 95.6913Z" fill="white"/>
<path d="M100.568 98.5209C100.71 98.5209 100.825 98.3482 100.825 98.1351C100.825 97.922 100.71 97.7492 100.568 97.7492C100.426 97.7492 100.31 97.922 100.31 98.1351C100.31 98.3482 100.426 98.5209 100.568 98.5209Z" fill="white"/>
<path d="M97.4781 97.2348C97.6203 97.2348 97.7356 97.062 97.7356 96.8489C97.7356 96.6358 97.6203 96.463 97.4781 96.463C97.3359 96.463 97.2206 96.6358 97.2206 96.8489C97.2206 97.062 97.3359 97.2348 97.4781 97.2348Z" fill="white"/>
<path d="M107.52 89.0032C109.795 89.0032 111.639 87.1606 111.639 84.8875C111.639 82.6144 109.795 80.7717 107.52 80.7717C105.244 80.7717 103.4 82.6144 103.4 84.8875C103.4 87.1606 105.244 89.0032 107.52 89.0032Z" fill="white"/>
<path opacity="0.2" d="M110.609 85.1447C110.609 85.9634 110.284 86.7485 109.704 87.3274C109.125 87.9063 108.339 88.2315 107.52 88.2315C106.7 88.2315 105.914 87.9063 105.335 87.3274C104.756 86.7485 104.43 85.9634 104.43 85.1447" fill="#F9E099"/>
<path opacity="0.2" d="M104.43 84.6302C104.43 83.8116 104.756 83.0264 105.335 82.4475C105.914 81.8686 106.7 81.5434 107.52 81.5434C108.339 81.5434 109.125 81.8686 109.704 82.4475C110.284 83.0264 110.609 83.8116 110.609 84.6302" fill="#F9E099"/>
<path d="M105.975 83.8585C106.117 83.8585 106.232 83.6858 106.232 83.4727C106.232 83.2596 106.117 83.0868 105.975 83.0868C105.833 83.0868 105.717 83.2596 105.717 83.4727C105.717 83.6858 105.833 83.8585 105.975 83.8585Z" fill="white"/>
<path d="M107.52 83.3441C107.662 83.3441 107.777 83.1713 107.777 82.9582C107.777 82.7451 107.662 82.5724 107.52 82.5724C107.377 82.5724 107.262 82.7451 107.262 82.9582C107.262 83.1713 107.377 83.3441 107.52 83.3441Z" fill="white"/>
<path d="M107.52 86.6881C107.662 86.6881 107.777 86.5154 107.777 86.3023C107.777 86.0892 107.662 85.9164 107.52 85.9164C107.377 85.9164 107.262 86.0892 107.262 86.3023C107.262 86.5154 107.377 86.6881 107.52 86.6881Z" fill="white"/>
<path d="M109.065 84.6302C109.207 84.6302 109.322 84.4575 109.322 84.2444C109.322 84.0313 109.207 83.8585 109.065 83.8585C108.922 83.8585 108.807 84.0313 108.807 84.2444C108.807 84.4575 108.922 84.6302 109.065 84.6302Z" fill="white"/>
<path d="M108.807 87.4598C108.949 87.4598 109.064 87.2871 109.064 87.074C109.064 86.8609 108.949 86.6881 108.807 86.6881C108.665 86.6881 108.549 86.8609 108.549 87.074C108.549 87.2871 108.665 87.4598 108.807 87.4598Z" fill="white"/>
<path d="M105.717 86.1736C105.86 86.1736 105.975 86.0009 105.975 85.7878C105.975 85.5747 105.86 85.4019 105.717 85.4019C105.575 85.4019 105.46 85.5747 105.46 85.7878C105.46 86.0009 105.575 86.1736 105.717 86.1736Z" fill="white"/>
<path d="M115.759 94.6624C118.034 94.6624 119.878 92.8197 119.878 90.5466C119.878 88.2735 118.034 86.4308 115.759 86.4308C113.484 86.4308 111.639 88.2735 111.639 90.5466C111.639 92.8197 113.484 94.6624 115.759 94.6624Z" fill="#F9E099"/>
<path opacity="0.2" d="M118.848 90.8039C118.848 91.6226 118.523 92.4077 117.943 92.9866C117.364 93.5655 116.578 93.8907 115.759 93.8907C114.939 93.8907 114.153 93.5655 113.574 92.9866C112.995 92.4077 112.669 91.6226 112.669 90.8039" fill="#F9E099"/>
<path opacity="0.2" d="M112.669 90.2894C112.669 89.4707 112.995 88.6856 113.574 88.1067C114.153 87.5278 114.939 87.2026 115.759 87.2026C116.578 87.2026 117.364 87.5278 117.943 88.1067C118.523 88.6856 118.848 89.4707 118.848 90.2894" fill="#F9E099"/>
<path d="M114.214 89.5177C114.356 89.5177 114.471 89.3449 114.471 89.1318C114.471 88.9187 114.356 88.746 114.214 88.746C114.072 88.746 113.956 88.9187 113.956 89.1318C113.956 89.3449 114.072 89.5177 114.214 89.5177Z" fill="#F9E099"/>
<path d="M115.759 89.0032C115.901 89.0032 116.016 88.8305 116.016 88.6174C116.016 88.4043 115.901 88.2315 115.759 88.2315C115.616 88.2315 115.501 88.4043 115.501 88.6174C115.501 88.8305 115.616 89.0032 115.759 89.0032Z" fill="#F9E099"/>
<path d="M115.759 92.3473C115.901 92.3473 116.016 92.1745 116.016 91.9614C116.016 91.7483 115.901 91.5756 115.759 91.5756C115.616 91.5756 115.501 91.7483 115.501 91.9614C115.501 92.1745 115.616 92.3473 115.759 92.3473Z" fill="#F9E099"/>
<path d="M117.303 90.2894C117.446 90.2894 117.561 90.1166 117.561 89.9035C117.561 89.6904 117.446 89.5177 117.303 89.5177C117.161 89.5177 117.046 89.6904 117.046 89.9035C117.046 90.1166 117.161 90.2894 117.303 90.2894Z" fill="#F9E099"/>
<path d="M117.046 93.119C117.188 93.119 117.304 92.9462 117.304 92.7331C117.304 92.52 117.188 92.3473 117.046 92.3473C116.904 92.3473 116.789 92.52 116.789 92.7331C116.789 92.9462 116.904 93.119 117.046 93.119Z" fill="#F9E099"/>
<path d="M113.956 91.8328C114.099 91.8328 114.214 91.6601 114.214 91.447C114.214 91.2339 114.099 91.0611 113.956 91.0611C113.814 91.0611 113.699 91.2339 113.699 91.447C113.699 91.6601 113.814 91.8328 113.956 91.8328Z" fill="#F9E099"/>
<path d="M95.161 95.1769C97.4362 95.1769 99.2805 93.3342 99.2805 91.0611C99.2805 88.788 97.4362 86.9453 95.161 86.9453C92.8858 86.9453 91.0414 88.788 91.0414 91.0611C91.0414 93.3342 92.8858 95.1769 95.161 95.1769Z" fill="#F9E099"/>
<path opacity="0.2" d="M98.2507 91.3184C98.2507 92.137 97.9252 92.9222 97.3458 93.5011C96.7664 94.08 95.9805 94.4052 95.1611 94.4052C94.3416 94.4052 93.5558 94.08 92.9763 93.5011C92.3969 92.9222 92.0714 92.137 92.0714 91.3184" fill="#F9E099"/>
<path opacity="0.2" d="M92.0714 90.8039C92.0714 89.9852 92.3969 89.2 92.9763 88.6211C93.5558 88.0423 94.3416 87.717 95.1611 87.717C95.9805 87.717 96.7664 88.0423 97.3458 88.6211C97.9252 89.2 98.2507 89.9852 98.2507 90.8039" fill="#F9E099"/>
<path d="M93.6161 90.0321C93.7583 90.0321 93.8736 89.8594 93.8736 89.6463C93.8736 89.4332 93.7583 89.2604 93.6161 89.2604C93.4739 89.2604 93.3586 89.4332 93.3586 89.6463C93.3586 89.8594 93.4739 90.0321 93.6161 90.0321Z" fill="#F9E099"/>
<path d="M95.161 89.5177C95.3032 89.5177 95.4185 89.3449 95.4185 89.1318C95.4185 88.9187 95.3032 88.746 95.161 88.746C95.0188 88.746 94.9036 88.9187 94.9036 89.1318C94.9036 89.3449 95.0188 89.5177 95.161 89.5177Z" fill="#F9E099"/>
<path d="M95.161 92.8617C95.3032 92.8617 95.4185 92.689 95.4185 92.4759C95.4185 92.2628 95.3032 92.09 95.161 92.09C95.0188 92.09 94.9036 92.2628 94.9036 92.4759C94.9036 92.689 95.0188 92.8617 95.161 92.8617Z" fill="#F9E099"/>
<path d="M96.7059 90.8039C96.8481 90.8039 96.9634 90.6311 96.9634 90.418C96.9634 90.2049 96.8481 90.0322 96.7059 90.0322C96.5637 90.0322 96.4484 90.2049 96.4484 90.418C96.4484 90.6311 96.5637 90.8039 96.7059 90.8039Z" fill="#F9E099"/>
<path d="M96.4483 93.6335C96.5905 93.6335 96.7057 93.4607 96.7057 93.2476C96.7057 93.0345 96.5905 92.8618 96.4483 92.8618C96.3061 92.8618 96.1908 93.0345 96.1908 93.2476C96.1908 93.4607 96.3061 93.6335 96.4483 93.6335Z" fill="#F9E099"/>
<path d="M93.3587 92.3473C93.5009 92.3473 93.6162 92.1745 93.6162 91.9614C93.6162 91.7483 93.5009 91.5756 93.3587 91.5756C93.2165 91.5756 93.1013 91.7483 93.1013 91.9614C93.1013 92.1745 93.2165 92.3473 93.3587 92.3473Z" fill="#F9E099"/>
<path d="M104.43 96.9775C106.705 96.9775 108.55 95.1348 108.55 92.8617C108.55 90.5887 106.705 88.746 104.43 88.746C102.155 88.746 100.31 90.5887 100.31 92.8617C100.31 95.1348 102.155 96.9775 104.43 96.9775Z" fill="#F9E099"/>
<path opacity="0.2" d="M107.52 93.119C107.52 93.5244 107.44 93.9257 107.284 94.3003C107.129 94.6748 106.902 95.0151 106.615 95.3017C106.328 95.5883 105.987 95.8157 105.612 95.9708C105.237 96.126 104.836 96.2058 104.43 96.2058C104.024 96.2058 103.622 96.126 103.248 95.9708C102.873 95.8157 102.532 95.5883 102.245 95.3017C101.958 95.0151 101.731 94.6748 101.575 94.3003C101.42 93.9257 101.34 93.5244 101.34 93.119" fill="#F9E099"/>
<path opacity="0.2" d="M101.34 92.6045C101.34 92.1991 101.42 91.7977 101.575 91.4232C101.731 91.0487 101.958 90.7084 102.245 90.4218C102.532 90.1351 102.873 89.9078 103.248 89.7526C103.622 89.5975 104.024 89.5177 104.43 89.5177C104.836 89.5177 105.237 89.5975 105.612 89.7526C105.987 89.9078 106.328 90.1351 106.615 90.4218C106.902 90.7084 107.129 91.0487 107.284 91.4232C107.44 91.7977 107.52 92.1991 107.52 92.6045" fill="#F9E099"/>
<path d="M102.885 91.8328C103.027 91.8328 103.143 91.6601 103.143 91.447C103.143 91.2339 103.027 91.0611 102.885 91.0611C102.743 91.0611 102.628 91.2339 102.628 91.447C102.628 91.6601 102.743 91.8328 102.885 91.8328Z" fill="#F9E099"/>
<path d="M104.43 91.3183C104.572 91.3183 104.687 91.1456 104.687 90.9325C104.687 90.7194 104.572 90.5466 104.43 90.5466C104.288 90.5466 104.173 90.7194 104.173 90.9325C104.173 91.1456 104.288 91.3183 104.43 91.3183Z" fill="#F9E099"/>
<path d="M104.43 94.6624C104.572 94.6624 104.687 94.4896 104.687 94.2765C104.687 94.0634 104.572 93.8907 104.43 93.8907C104.288 93.8907 104.173 94.0634 104.173 94.2765C104.173 94.4896 104.288 94.6624 104.43 94.6624Z" fill="#F9E099"/>
<path d="M105.975 92.6045C106.117 92.6045 106.232 92.4317 106.232 92.2186C106.232 92.0055 106.117 91.8328 105.975 91.8328C105.833 91.8328 105.717 92.0055 105.717 92.2186C105.717 92.4317 105.833 92.6045 105.975 92.6045Z" fill="#F9E099"/>
<path d="M105.717 95.4341C105.86 95.4341 105.975 95.2613 105.975 95.0482C105.975 94.8351 105.86 94.6624 105.717 94.6624C105.575 94.6624 105.46 94.8351 105.46 95.0482C105.46 95.2613 105.575 95.4341 105.717 95.4341Z" fill="#F9E099"/>
<path d="M102.628 94.1479C102.77 94.1479 102.885 93.9751 102.885 93.762C102.885 93.5489 102.77 93.3762 102.628 93.3762C102.485 93.3762 102.37 93.5489 102.37 93.762C102.37 93.9751 102.485 94.1479 102.628 94.1479Z" fill="#F9E099"/>
<path d="M110.867 101.35C113.142 101.35 114.986 99.5078 114.986 97.2347C114.986 94.9616 113.142 93.119 110.867 93.119C108.592 93.119 106.747 94.9616 106.747 97.2347C106.747 99.5078 108.592 101.35 110.867 101.35Z" fill="white"/>
<path opacity="0.2" d="M113.956 97.492C113.956 98.3106 113.631 99.0958 113.051 99.6747C112.472 100.254 111.686 100.579 110.867 100.579C110.047 100.579 109.261 100.254 108.682 99.6747C108.103 99.0958 107.777 98.3106 107.777 97.492" fill="#F9E099"/>
<path opacity="0.2" d="M107.777 96.9775C107.777 96.1588 108.103 95.3737 108.682 94.7948C109.261 94.2159 110.047 93.8907 110.867 93.8907C111.686 93.8907 112.472 94.2159 113.051 94.7948C113.631 95.3737 113.956 96.1588 113.956 96.9775" fill="#F9E099"/>
<path d="M109.322 96.2058C109.464 96.2058 109.579 96.033 109.579 95.8199C109.579 95.6068 109.464 95.4341 109.322 95.4341C109.18 95.4341 109.064 95.6068 109.064 95.8199C109.064 96.033 109.18 96.2058 109.322 96.2058Z" fill="white"/>
<path d="M110.867 95.6913C111.009 95.6913 111.124 95.5186 111.124 95.3055C111.124 95.0924 111.009 94.9196 110.867 94.9196C110.725 94.9196 110.609 95.0924 110.609 95.3055C110.609 95.5186 110.725 95.6913 110.867 95.6913Z" fill="white"/>
<path d="M110.867 99.0354C111.009 99.0354 111.124 98.8627 111.124 98.6496C111.124 98.4365 111.009 98.2637 110.867 98.2637C110.725 98.2637 110.609 98.4365 110.609 98.6496C110.609 98.8627 110.725 99.0354 110.867 99.0354Z" fill="white"/>
<path d="M112.412 96.9775C112.554 96.9775 112.669 96.8048 112.669 96.5917C112.669 96.3786 112.554 96.2058 112.412 96.2058C112.269 96.2058 112.154 96.3786 112.154 96.5917C112.154 96.8048 112.269 96.9775 112.412 96.9775Z" fill="white"/>
<path d="M112.154 99.8071C112.296 99.8071 112.412 99.6343 112.412 99.4212C112.412 99.2081 112.296 99.0354 112.154 99.0354C112.012 99.0354 111.897 99.2081 111.897 99.4212C111.897 99.6343 112.012 99.8071 112.154 99.8071Z" fill="white"/>
<path d="M109.065 98.5209C109.207 98.5209 109.322 98.3482 109.322 98.1351C109.322 97.922 109.207 97.7492 109.065 97.7492C108.922 97.7492 108.807 97.922 108.807 98.1351C108.807 98.3482 108.922 98.5209 109.065 98.5209Z" fill="white"/>
<path d="M57.8895 82.6343C58.4926 82.6343 58.9815 82.1459 58.9815 81.5434C58.9815 80.9409 58.4926 80.4525 57.8895 80.4525C57.2865 80.4525 56.7976 80.9409 56.7976 81.5434C56.7976 82.1459 57.2865 82.6343 57.8895 82.6343Z" fill="#CA973D"/>
<path d="M87.5703 121.141L61.346 113.875L62.3506 110.147L88.5749 117.414L87.5703 121.141Z" fill="white"/>
<path d="M83.726 119.895C74.7456 121.613 65.5206 121.613 56.5402 119.895V116.031C65.5407 117.521 74.7254 117.521 83.726 116.031V119.895Z" fill="white"/>
<path d="M86.5207 108.302C77.5403 110.019 68.3153 110.019 59.335 108.302V104.437C68.3355 105.928 77.5202 105.928 86.5207 104.437V108.302Z" fill="white"/>
<path d="M95.9215 112.939C86.9411 114.657 77.7161 114.657 68.7357 112.939V109.075C77.7362 110.565 86.9209 110.565 95.9215 109.075V112.939Z" fill="white"/>
<path d="M98.2081 117.319C89.2277 119.037 80.0027 119.037 71.0223 117.319V113.455C80.0229 114.945 89.2076 114.945 98.2081 113.455V117.319Z" fill="white"/>
<path d="M106.18 123.042L79.3591 127.543L78.7371 123.73L105.558 119.229L106.18 123.042Z" fill="white"/>
<path d="M102.174 123.538C94.7378 128.893 86.357 132.798 77.4715 135.048L75.8801 131.537C84.6879 129.073 93.0325 125.184 100.583 120.026L102.174 123.538Z" fill="white"/>
<path d="M99.9394 111.82C92.5033 117.175 84.1225 121.08 75.237 123.33L73.6456 119.819C82.4534 117.355 90.798 113.466 98.348 108.308L99.9394 111.82Z" fill="white"/>
<path d="M110.391 112.053C102.955 117.408 94.5742 121.314 85.6886 123.564L84.0972 120.052C92.905 117.588 101.25 113.7 108.8 108.542L110.391 112.053Z" fill="white"/>
<path d="M114.272 115.065C106.836 120.42 98.4553 124.325 89.5697 126.575L87.9784 123.064C96.7862 120.6 105.131 116.711 112.681 111.553L114.272 115.065Z" fill="white"/>
<path d="M81.7724 107.524H80.485V108.81H81.7724V107.524Z" fill="white"/>
<path d="M85.6345 129.904H84.3472V131.19H85.6345V129.904Z" fill="white"/>
<path d="M65.0369 107.524H63.7495V108.81H65.0369V107.524Z" fill="white"/>
<path d="M94.9035 123.473H93.6161V124.759H94.9035V123.473Z" fill="white"/>
<path d="M95.6758 116.013H94.3885V117.299H95.6758V116.013Z" fill="white"/>
<path d="M74.4394 112.491L72.9479 111.48L72.3697 112.332L73.8611 113.343L74.4394 112.491Z" fill="white"/>
<path d="M89.6303 115.321L88.1389 114.31L87.5606 115.161L89.0521 116.172L89.6303 115.321Z" fill="white"/>
<path d="M71.0923 120.208L69.6008 119.197L69.0226 120.049L70.514 121.06L71.0923 120.208Z" fill="white"/>
<path d="M80.5339 120.134L81.5458 118.643L80.6936 118.066L79.6817 119.556L80.5339 120.134Z" fill="white"/>
<path d="M87.4857 121.934L88.4976 120.444L87.6454 119.866L86.6335 121.357L87.4857 121.934Z" fill="white"/>
<path d="M106.025 115.76L107.037 114.27L106.185 113.693L105.173 115.183L106.025 115.76Z" fill="white"/>
</svg>
