<!-- sample rectangle -->
<svg width="512" height="512" xmlns="http://www.w3.org/2000/svg">
  <g><path d="M501.75 369.125H389.91a43.916 43.916 0 0 0 7.235-24.188c0-14.184-6.725-26.819-17.146-34.91V277.26l5.01 5.01c1.953 1.952 4.512 2.929 7.071 2.929s5.118-.977 7.071-2.929l39.308-39.307a10.003 10.003 0 0 0 0-14.142l-39.308-39.308a10.003 10.003 0 0 0-14.142 0l-5.01 5.01V54c0-5.522-4.478-10-10-10h-31.926v-7.926C338.074 16.183 321.892 0 302 0s-36.074 16.183-36.074 36.074V44h-39.852v-7.926C226.074 16.183 209.892 0 190 0s-36.074 16.183-36.074 36.074V44h-39.852v-7.926C114.074 16.183 97.892 0 78 0S41.926 16.183 41.926 36.074V44H10C4.478 44 0 48.478 0 54v448c0 5.522 4.478 10 10 10h135.003c5.522 0 10-4.478 10-10s-4.478-10-10-10H20V64h74.074v7.926C94.074 80.789 86.863 88 78 88c-5.522 0-10 4.478-10 10s4.478 10 10 10c19.892 0 36.074-16.183 36.074-36.074V64h92v7.926C206.074 80.789 198.863 88 190 88c-5.522 0-10 4.478-10 10s4.478 10 10 10c19.892 0 36.074-16.183 36.074-36.074V64h92v7.926C318.074 80.789 310.863 88 302 88c-5.522 0-10 4.478-10 10s4.478 10 10 10c19.892 0 36.074-16.183 36.074-36.074V64H360v150.524l-14.297 14.297c-3.905 3.905-3.905 10.237 0 14.143L360 257.261v44.057a44.306 44.306 0 0 0-7.042-.568c-24.365 0-44.188 19.822-44.188 44.188a43.918 43.918 0 0 0 7.235 24.188H256c-5.522 0-10 4.478-10 10 0 47.586 25.149 89.402 62.849 112.875H235c-5.522 0-10 4.478-10 10s4.478 10 10 10h143.875c73.268 0 132.875-59.607 132.875-132.875 0-5.523-4.478-10.001-10-10.001zM61.926 44v-7.926C61.926 27.211 69.137 20 78 20s16.074 7.211 16.074 16.074V44zm112 0v-7.926C173.926 27.211 181.137 20 190 20s16.074 7.211 16.074 16.074V44zm112 0v-7.926C285.926 27.211 293.137 20 302 20s16.074 7.211 16.074 16.074V44zm106.155 166.728 25.165 25.165-25.165 25.165-25.165-25.165zm-63.31 134.21c0-13.337 10.851-24.188 24.188-24.188s24.188 10.851 24.188 24.188-10.851 24.188-24.188 24.188-24.188-10.852-24.188-24.188zM378.875 492c-58.87 0-107.358-45.302-112.436-102.875H491.31C486.233 446.698 437.745 492 378.875 492z" fill="#000000" opacity="1" data-original="#000000" class=""></path><path d="M419.011 333.171c10.288 10.288 23.968 15.954 38.518 15.954s28.229-5.666 38.518-15.954S512 309.203 512 294.653s-5.666-28.229-15.954-38.518c-3.906-3.904-10.236-3.904-14.143 0l-62.893 62.893c-3.905 3.906-3.905 10.238.001 14.143zm68.918-54.776c6.967 13.041 4.958 29.651-6.025 40.634-10.981 10.983-27.593 12.992-40.634 6.025zM275.822 192.127c-5.522 0-10 4.478-10 10v3.948a35.168 35.168 0 0 0-17.127 11.284 35.163 35.163 0 0 0-7.536 29.003l9.939 53.229c2.222 11.899 12.619 20.535 24.724 20.535s22.502-8.636 24.724-20.534l9.939-53.23a35.163 35.163 0 0 0-7.536-29.003 35.155 35.155 0 0 0-17.127-11.284v-3.948c0-5.523-4.477-10-10-10zm11.741 38.011a15.22 15.22 0 0 1 3.262 12.553l-9.939 53.231c-.455 2.437-2.585 4.205-5.063 4.205s-4.608-1.769-5.063-4.206l-9.939-53.23a15.22 15.22 0 0 1 3.262-12.553c2.909-3.502 7.188-5.511 11.741-5.511s8.83 2.009 11.739 5.511zM81.069 162.6c-1.859-1.87-4.439-2.93-7.069-2.93s-5.21 1.06-7.07 2.93c-1.86 1.86-2.93 4.44-2.93 7.07s1.069 5.2 2.93 7.07c1.86 1.859 4.44 2.93 7.07 2.93s5.21-1.07 7.069-2.93c1.86-1.87 2.931-4.44 2.931-7.07s-1.07-5.21-2.931-7.07zM212.074 159.667h-88.407c-5.522 0-10 4.478-10 10s4.478 10 10 10h88.407c5.522 0 10-4.478 10-10s-4.477-10-10-10zM81.069 234.04c-1.859-1.86-4.439-2.931-7.069-2.931s-5.21 1.07-7.07 2.931a10.072 10.072 0 0 0-2.93 7.069c0 2.631 1.069 5.21 2.93 7.07s4.44 2.93 7.07 2.93 5.21-1.069 7.069-2.93a10.075 10.075 0 0 0 2.931-7.07c0-2.63-1.07-5.21-2.931-7.069zM212.074 231.111h-88.407c-5.522 0-10 4.478-10 10s4.478 10 10 10h88.407c5.522 0 10-4.478 10-10s-4.477-10-10-10zM81.069 305.479c-1.859-1.859-4.439-2.92-7.069-2.92s-5.21 1.061-7.07 2.92c-1.86 1.87-2.93 4.45-2.93 7.08s1.069 5.2 2.93 7.061c1.86 1.87 4.44 2.939 7.07 2.939s5.21-1.069 7.069-2.939c1.86-1.86 2.931-4.431 2.931-7.061s-1.07-5.209-2.931-7.08zM212.074 302.556h-88.407c-5.522 0-10 4.478-10 10s4.478 10 10 10h88.407c5.522 0 10-4.478 10-10s-4.477-10-10-10zM74 374c-2.63 0-5.21 1.069-7.07 2.93S64 381.37 64 384s1.069 5.21 2.93 7.069C68.79 392.93 71.37 394 74 394s5.21-1.07 7.069-2.931C82.93 389.21 84 386.63 84 384s-1.07-5.21-2.931-7.07A10.067 10.067 0 0 0 74 374zM212.074 374h-88.407c-5.522 0-10 4.478-10 10s4.478 10 10 10h88.407c5.522 0 10-4.478 10-10s-4.477-10-10-10zM190 492c-2.63 0-5.21 1.069-7.07 2.93S180 499.37 180 502s1.069 5.21 2.93 7.069c1.86 1.86 4.44 2.931 7.07 2.931s5.21-1.07 7.069-2.931C198.93 507.21 200 504.63 200 502s-1.07-5.21-2.931-7.07A10.067 10.067 0 0 0 190 492z" fill="#000000" opacity="1" data-original="#000000" class=""></path></g>
</svg>