<svg width="48" height="48" viewBox="0 0 48 48" fill="none" xmlns="http://www.w3.org/2000/svg">
<path d="M33.1489 44H38.0426C39.6226 44 41.1379 43.3723 42.2551 42.2551C43.3723 41.1379 44 39.6226 44 38.0426V33.1489M44 14.8511V9.95745C44 8.37743 43.3723 6.86213 42.2551 5.7449C41.1379 4.62766 39.6226 4 38.0426 4H33.1489M14.8511 44H9.95745C8.37743 44 6.86213 43.3723 5.7449 42.2551C4.62766 41.1379 4 39.6226 4 38.0426V33.1489M4 14.8511V9.95745C4 8.37743 4.62766 6.86213 5.7449 5.7449C6.86213 4.62766 8.37743 4 9.95745 4H14.8511" stroke="#EBBA54" stroke-width="6.1875" stroke-linecap="round" stroke-linejoin="round"/>
<g clip-path="url(#clip0_3117_220)">
<path d="M30.0184 13.2659C30.2667 13.0887 30.5733 13.0128 30.8756 13.0535C31.178 13.0943 31.4534 13.2487 31.646 13.4853C31.8386 13.7219 31.9339 14.023 31.9124 14.3273C31.8909 14.6316 31.7543 14.9163 31.5304 15.1235L31.4128 15.2183L28.8916 17.0195C28.5296 17.2776 28.2481 17.6328 28.0795 18.0441C27.9109 18.4554 27.8621 18.9061 27.9388 19.3439L27.9772 19.5263L31.9888 15.5147C32.2047 15.2995 32.4945 15.1746 32.7992 15.1653C33.104 15.156 33.4008 15.263 33.6295 15.4646C33.8582 15.6663 34.0016 15.9474 34.0305 16.2509C34.0594 16.5544 33.9717 16.8575 33.7852 17.0987L33.6856 17.2115L29.674 21.2231C30.52 21.4391 31.456 21.1751 32.0572 20.4671L32.1808 20.3087L33.982 17.7875C34.1597 17.5402 34.4248 17.3696 34.7236 17.3104C35.0224 17.2513 35.3325 17.308 35.591 17.469C35.8495 17.63 36.0372 17.8833 36.1159 18.1776C36.1946 18.4718 36.1584 18.785 36.0148 19.0535L35.9344 19.1819L34.1344 21.7043C33.4682 22.6366 32.4882 23.2973 31.3742 23.5653C30.2602 23.8334 29.0869 23.6907 28.0696 23.1635L27.8536 23.0435L25.0972 25.7987L30.0856 30.7883C30.2922 30.995 30.4163 31.2699 30.4347 31.5615C30.453 31.8532 30.3643 32.1415 30.1852 32.3723L30.0856 32.4851C29.879 32.6917 29.604 32.8159 29.3124 32.8342C29.0208 32.8525 28.7325 32.7638 28.5016 32.5847L28.3888 32.4851L23.4004 27.4955L18.412 32.4851C18.2054 32.6917 17.9304 32.8159 17.6388 32.8342C17.3472 32.8525 17.0589 32.7638 16.828 32.5847L16.7152 32.4851C16.5086 32.2785 16.3845 32.0036 16.3661 31.712C16.3478 31.4203 16.4365 31.132 16.6156 30.9011L16.7152 30.7883L21.7036 25.7987L19.7716 23.8667C19.2633 24.1413 18.7144 24.3329 18.1456 24.4343L17.8456 24.4787C17.1276 24.5694 16.3984 24.4919 15.7156 24.2524C15.0327 24.0129 14.4149 23.6179 13.9108 23.0987C12.796 21.9827 12.1588 20.5799 12.0004 19.2323C11.8444 17.9063 12.1444 16.4855 13.1164 15.5147C14.0872 14.5427 15.5068 14.2427 16.8328 14.3987C18.1804 14.5583 19.5844 15.1955 20.6992 16.3103C21.2182 16.8143 21.6131 17.4319 21.8525 18.1146C22.092 18.7972 22.1696 19.5262 22.0792 20.2439C22.0072 20.8499 21.8308 21.4247 21.592 21.9251L21.4672 22.1699L23.3992 24.1019L26.1568 21.3467C25.5789 20.3601 25.3753 19.1984 25.5833 18.0741C25.7913 16.9497 26.397 15.9378 27.2896 15.2231L27.496 15.0671L30.0184 13.2659Z" fill="#EBBA54"/>
</g>
<defs>
<clipPath id="clip0_3117_220">
<rect width="24" height="24" fill="white" transform="translate(12.0001 12)"/>
</clipPath>
</defs>
</svg>
