<svg width="1222" height="950" viewBox="0 0 1222 950" fill="none" xmlns="http://www.w3.org/2000/svg">
<path d="M853.075 775.252C828.052 804.721 792.859 819.464 757.682 819.464C730.902 819.464 704.13 810.93 681.831 793.857C677.987 790.913 676.132 786.468 676.196 782.017L617.819 719.02C614.347 715.273 609.028 714.246 604.183 715.853C593.004 719.559 578.567 717.412 567.239 706.074C551.546 690.368 544.023 661.086 556.195 648.904C568.368 636.721 597.624 645.251 613.317 660.957C624.646 672.295 626.791 685.744 623.088 696.932C621.482 701.782 622.509 707.106 626.252 710.579L690.879 765.783C694.889 764.947 708.187 767.751 711.637 770.395C756.133 787.484 776.067 785.484 813.223 762.061C850.465 724.79 850.465 664.139 813.223 626.866C776.067 600.484 757.682 599.984 711.641 618.531C705.838 622.981 686.616 623.339 681.447 618.165C675.203 611.915 674.748 600.503 681.759 595.128C734.329 554.819 811.825 561.995 855.523 616.645C892.484 662.871 891.382 730.137 853.075 775.252ZM776.391 715.089L727.295 665.951C723.036 661.689 716.593 659.941 711.029 662.246C705.306 664.616 698.736 663.298 694.37 658.929L648.851 607.984C649.273 603.203 647.451 598.293 643.322 595.127C590.736 554.808 513.206 562 469.514 616.702C432.577 662.948 433.719 730.215 472.052 775.308C497.077 804.745 532.238 819.464 567.399 819.464C594.175 819.464 620.95 810.929 643.25 793.857C650.292 788.465 645.9 777.035 639.631 770.761C634.464 765.59 619.245 765.947 613.445 770.395C571.692 782.017 554.192 789.484 511.859 762.063C474.617 724.79 474.617 664.14 511.859 626.869C548.692 595.128 591.192 607.984 613.441 618.531C616.443 620.832 631.088 623.745 634.627 623.4L686.268 666.712C690.528 670.975 692.273 677.422 689.97 682.993C687.602 688.721 688.921 695.297 693.285 699.665L742.544 748.966C744.386 750.809 747.373 750.809 749.215 748.966L749.539 748.641C751.38 746.798 751.38 743.809 749.539 741.965L708.393 700.785C706.572 698.962 706.572 696.007 708.393 694.185C710.214 692.363 713.166 692.363 714.987 694.185L756.133 735.365C757.974 737.209 760.961 737.209 762.803 735.365C764.644 733.522 764.644 730.533 762.803 728.689L721.657 687.508C719.836 685.686 719.836 682.731 721.657 680.909C723.478 679.087 726.43 679.087 728.251 680.909L769.397 722.089C771.238 723.933 774.225 723.933 776.067 722.089L776.391 721.766C778.233 719.921 778.233 716.932 776.391 715.089Z" fill="white"/>
<path d="M985.667 821.93C961.131 821.93 941.417 813.141 926.524 795.562C911.754 777.984 904.369 752.655 904.369 719.574C904.369 686.371 911.754 660.248 926.524 641.205C941.417 622.04 961.131 612.457 985.667 612.457C1014.72 612.457 1036.2 625.58 1050.12 651.825C1051.95 655.365 1053.84 656.891 1055.8 656.402C1057.87 655.914 1058.85 653.473 1058.73 649.078C1058.12 623.932 1054.88 594.696 1049.02 561.371C1048.53 558.685 1049.21 556.305 1051.04 554.229C1052.87 552.154 1055.19 550.812 1057.99 550.201C1065.81 549.103 1076.3 548.553 1089.49 548.553C1101.21 548.553 1110.97 549.103 1118.79 550.201C1124.4 551.422 1127.39 554.657 1127.76 559.906C1132.76 610.443 1135.26 693.207 1135.26 808.197C1135.26 811.126 1134.41 813.568 1132.7 815.521C1131.11 817.474 1128.98 818.634 1126.29 819C1118.6 819.977 1108.23 820.465 1095.16 820.465C1082.35 820.465 1072.46 819.977 1065.5 819C1062.69 818.634 1060.37 817.474 1058.54 815.521C1056.71 813.446 1056.04 811.004 1056.53 808.197C1058.24 797.455 1059.15 790.313 1059.28 786.773C1059.4 782.501 1058.48 780.182 1056.53 779.815C1054.58 779.327 1052.56 780.914 1050.49 784.576C1043.65 796.539 1034.68 805.755 1023.57 812.225C1012.46 818.695 999.828 821.93 985.667 821.93ZM1018.63 764.618C1030.35 764.618 1039.93 760.345 1047.37 751.8C1054.94 743.255 1058.73 731.659 1058.73 717.01C1058.73 702.484 1055 691.009 1047.56 682.586C1040.23 674.042 1030.59 669.769 1018.63 669.769C1006.42 669.769 996.593 674.103 989.146 682.77C981.822 691.314 978.16 702.85 978.16 717.376C978.16 731.903 981.883 743.438 989.33 751.983C996.776 760.406 1006.54 764.618 1018.63 764.618Z" fill="white"/>
<path d="M263.65 820.465C252.175 820.465 240.762 819.977 229.409 819C222.451 818.146 218.972 814.789 218.972 808.929C219.46 708.587 222.329 627.472 227.578 565.582C227.7 562.896 228.738 560.76 230.691 559.173C232.766 557.586 235.269 556.671 238.198 556.427C260.659 555.45 291.787 554.962 331.582 554.962C376.748 554.962 407.449 555.45 423.684 556.427C430.154 556.793 433.572 560.089 433.938 566.314C435.647 585.724 436.746 609.466 437.234 637.542C437.234 642.425 435.342 645.538 431.558 646.881C427.896 648.102 424.661 646.698 421.853 642.669C413.43 631.805 402.749 623.871 389.81 618.866C376.992 613.739 360.94 611.175 341.653 611.175C327.249 611.175 315.774 613.434 307.229 617.95C298.684 622.467 294.412 628.875 294.412 637.176V640.472C294.412 647.796 297.891 653.717 304.849 658.233C311.807 662.628 321.816 664.825 334.878 664.825C356.118 664.825 375.466 663.604 392.922 661.163C395.73 660.797 398.171 661.59 400.247 663.543C402.444 665.375 403.665 667.694 403.909 670.501L405.374 713.714C405.374 717.865 403.909 720.428 400.979 721.405C398.171 722.259 395.242 721.405 392.19 718.841C384.5 714.325 375.222 710.907 364.358 708.587C353.494 706.146 343.179 705.047 333.413 705.292C307.412 705.292 294.412 717.315 294.412 741.363C294.412 749.176 295.083 757.171 296.426 765.35C297.891 773.529 299.661 781.891 301.736 790.436C303.933 798.98 305.337 804.901 305.947 808.197C306.313 811.126 305.642 813.568 303.933 815.521C302.224 817.474 299.905 818.634 296.975 819C290.75 819.977 279.641 820.465 263.65 820.465Z" fill="white"/>
<path fill-rule="evenodd" clip-rule="evenodd" d="M6.27423 236.813C25.7455 287.502 77.1334 306.936 126.225 298.762C141.502 322.19 159.66 355.533 163.757 363.121C189.9 343.18 224.958 323.798 265.228 308.329C308.073 291.87 349.508 282.645 383.499 280.657L384.962 280.095C384.962 280.095 292.747 258.364 167.93 334.915C128.4 265.624 94.2702 227.939 58.4815 196.578C67.1438 206.659 79.1763 225.381 95.7798 251.215C99.7547 257.4 103.991 263.992 108.507 270.971C3.16965 268.698 -0.934852 162.421 56.2886 116.698C18.0138 131.4 -13.1966 186.125 6.27423 236.813ZM366.631 206.414C369.37 223.873 373.905 245.038 377.386 260.368C371.225 260.544 359.854 261.191 359.854 261.191C342.829 183.254 342.953 132.412 348.542 85.1561C348.857 98.4425 352.453 120.402 357.414 150.704C358.602 157.962 359.868 165.698 361.187 173.908C437.913 101.699 369.812 20.0049 296.694 24.3502C334.969 9.64755 394.79 29.4044 414.261 80.0921C433.732 130.781 408.57 179.62 366.631 206.414ZM217.585 252.258L171.049 131.112C170.429 176.196 198.899 231.632 217.585 252.258ZM277.767 229.14L231.231 107.994C230.612 153.078 259.082 208.514 277.767 229.14ZM139.775 7.53579C182.263 -8.7852 228.496 2.57139 258.848 32.6636C289.103 26.7003 315.447 34.9094 322.052 42.2976C289.357 36.1359 264.671 45.0701 250.313 52.8116C221.942 23.5832 177.829 12.402 137.4 27.9321C91.9865 45.377 65.6855 90.9699 70.731 137.158C58.4043 83.6204 87.0147 27.8027 139.775 7.53579ZM410.224 277.467L404.645 279.172C403.481 291.586 401.339 304.622 398.221 318.279C394.445 334.816 389.562 349.334 383.572 361.834C377.583 374.204 371.593 380.454 365.603 380.584C359.614 380.584 353.689 374.464 347.83 362.224C341.971 349.855 337.218 335.532 333.572 319.256C332.278 313.434 331.124 307.669 330.109 301.962L271.224 319.967L249.306 328.101C249.899 329.706 250.514 331.315 251.15 332.927C259.353 353.37 270.161 371.469 283.572 387.224C296.984 402.849 310.981 412.745 325.564 416.912C329.601 418.344 331.228 421.404 330.447 426.092C324.197 470.102 320.161 504.672 318.338 529.802C318.208 532.537 319.119 534.946 321.072 537.029C323.025 538.982 325.564 540.154 328.689 540.545C337.153 541.586 349.718 542.107 366.385 542.107C382.27 542.107 394.119 541.586 401.932 540.545C404.926 540.154 407.4 538.982 409.353 537.029C411.437 535.076 412.413 532.667 412.283 529.802C410.721 501.938 407.01 467.498 401.15 426.482C400.369 421.404 401.997 418.344 406.033 417.302C420.616 413.657 434.549 403.956 447.83 388.201C461.111 372.315 471.723 354.021 479.666 333.318C487.609 312.615 492.101 292.628 493.142 273.357C493.403 269.842 492.557 266.912 490.603 264.568C488.65 262.224 485.916 260.857 482.4 260.467C475.76 259.425 464.952 258.904 449.978 258.904C433.442 258.904 421.853 259.425 415.213 260.467C410.273 261.435 407.17 263.701 405.905 267.263L410.224 268.467V277.467ZM539.236 543.67C495.486 543.67 473.611 523.162 473.611 482.146C473.611 462.615 481.619 447.055 497.635 435.467C513.78 423.748 535.59 416 563.064 412.224C581.945 409.62 595.096 406.886 602.517 404.021C609.939 401.157 613.65 396.795 613.65 390.935C613.65 386.248 610.786 382.342 605.057 379.217C599.458 376.092 590.668 374.529 578.689 374.529C566.971 374.529 554.34 376.677 540.799 380.974C527.387 385.271 515.538 391.261 505.252 398.943C501.997 402.719 498.546 403.761 494.9 402.068C491.385 400.245 489.627 396.534 489.627 390.935C489.627 387.159 489.822 382.342 490.213 376.482C490.603 370.623 491.059 364.308 491.58 357.537C492.231 350.636 492.622 345.883 492.752 343.279C493.533 336.899 496.202 332.797 500.76 330.974C523.286 323.552 550.499 319.842 582.4 319.842C617.036 319.842 642.882 326.677 659.939 340.349C676.997 353.891 686.892 374.073 689.627 400.896C693.533 446.469 696.072 488.917 697.244 528.24C697.374 531.495 696.463 534.23 694.51 536.443C692.687 538.526 690.083 539.894 686.697 540.545C679.536 541.586 669.445 542.107 656.424 542.107C643.403 542.107 632.986 541.586 625.174 540.545C620.747 539.763 617.296 538.006 614.822 535.271C612.348 532.537 611.502 529.217 612.283 525.31C613.455 519.321 614.562 510.662 615.603 499.334C615.994 495.558 615.083 493.409 612.869 492.888C610.655 492.237 608.767 493.735 607.205 497.381C600.955 512.355 591.71 523.813 579.471 531.756C567.361 539.698 553.95 543.67 539.236 543.67ZM577.127 484.49C585.721 484.49 593.924 481.17 601.736 474.529C609.679 467.758 613.65 458.969 613.65 448.162C613.65 442.433 612.023 437.875 608.767 434.49C605.512 431.105 600.434 429.412 593.533 429.412C582.335 429.412 572.439 432.667 563.846 439.177C555.382 445.688 551.15 453.761 551.15 463.396C551.15 470.948 553.168 476.352 557.205 479.607C561.241 482.862 567.882 484.49 577.127 484.49ZM776.736 543.67C732.986 543.67 711.111 523.162 711.111 482.146C711.111 462.615 719.119 447.055 735.135 435.467C751.28 423.748 773.09 416 800.564 412.224C819.445 409.62 832.596 406.886 840.017 404.021C847.439 401.157 851.15 396.795 851.15 390.935C851.15 386.248 848.286 382.342 842.557 379.217C836.958 376.092 828.169 374.529 816.189 374.529C804.471 374.529 791.84 376.677 778.299 380.974C764.887 385.271 753.038 391.261 742.752 398.943C739.497 402.719 736.046 403.761 732.4 402.068C728.885 400.245 727.127 396.534 727.127 390.935C727.127 387.159 727.322 382.342 727.713 376.482C728.103 370.623 728.559 364.308 729.08 357.537C729.731 350.636 730.122 345.883 730.252 343.279C731.033 336.899 733.702 332.797 738.26 330.974C760.786 323.552 787.999 319.842 819.9 319.842C854.536 319.842 880.382 326.677 897.439 340.349C914.497 353.891 924.392 374.073 927.127 400.896C931.033 446.469 933.572 488.917 934.744 528.24C934.874 531.495 933.963 534.23 932.01 536.443C930.187 538.526 927.583 539.894 924.197 540.545C917.036 541.586 906.945 542.107 893.924 542.107C880.903 542.107 870.486 541.586 862.674 540.545C858.247 539.763 854.796 538.006 852.322 535.271C849.848 532.537 849.002 529.217 849.783 525.31C850.955 519.321 852.062 510.662 853.103 499.334C853.494 495.558 852.583 493.409 850.369 492.888C848.155 492.237 846.267 493.735 844.705 497.381C838.455 512.355 829.21 523.813 816.971 531.756C804.861 539.698 791.45 543.67 776.736 543.67ZM814.627 484.49C823.221 484.49 831.424 481.17 839.236 474.529C847.179 467.758 851.15 458.969 851.15 448.162C851.15 442.433 849.523 437.875 846.267 434.49C843.012 431.105 837.934 429.412 831.033 429.412C819.835 429.412 809.939 432.667 801.346 439.177C792.882 445.688 788.65 453.761 788.65 463.396C788.65 470.948 790.669 476.352 794.705 479.607C798.741 482.862 805.382 484.49 814.627 484.49Z" fill="white"/>
<path fill-rule="evenodd" clip-rule="evenodd" d="M1069.85 557.466C1069.85 677.864 972.25 775.466 851.851 775.466C811.49 775.466 773.691 764.497 741.271 745.378H726.251C762.171 769.435 805.373 783.466 851.851 783.466C976.668 783.466 1077.85 682.282 1077.85 557.466C1077.85 432.649 976.668 331.466 851.851 331.466C787.198 331.466 728.886 358.614 687.692 402.133H698.894C738.247 363.379 792.256 339.466 851.851 339.466C972.25 339.466 1069.85 437.068 1069.85 557.466Z" fill="white" fill-opacity="0.4"/>
<path fill-rule="evenodd" clip-rule="evenodd" d="M1213.69 557.198C1213.69 769.68 1041.44 941.93 828.96 941.93C754.223 941.93 684.462 920.62 625.425 883.744H610.697C673.117 925.548 748.191 949.93 828.96 949.93C1045.86 949.93 1221.69 774.098 1221.69 557.198C1221.69 340.298 1045.86 164.466 828.96 164.466C716.609 164.466 615.276 211.643 543.692 287.269H554.812C624.594 216.403 721.646 172.466 828.96 172.466C1041.44 172.466 1213.69 344.716 1213.69 557.198Z" fill="white"/>
</svg>
