<svg width="1222" height="950" viewBox="0 0 1222 950" fill="none" xmlns="http://www.w3.org/2000/svg">
<path d="M852.766 775.182C827.743 804.651 792.551 819.394 757.373 819.394C730.593 819.394 703.822 810.86 681.522 793.786C677.678 790.843 675.824 786.397 675.887 781.946L617.51 718.949C614.039 715.203 608.72 714.175 603.874 715.782C592.696 719.489 578.258 717.341 566.93 706.003C551.237 690.297 543.714 661.016 555.886 648.834C568.059 636.651 597.316 645.181 613.009 660.887C624.338 672.225 626.482 685.674 622.779 696.862C621.174 701.712 622.201 707.035 625.943 710.509L690.571 765.713C694.58 764.876 707.878 767.68 711.328 770.325C755.824 787.414 775.758 785.414 812.915 761.99C850.156 724.72 850.156 664.069 812.915 626.796C775.758 600.414 757.373 599.914 711.332 618.461C705.529 622.91 686.307 623.268 681.139 618.095C674.894 611.845 674.439 600.433 681.45 595.057C734.02 554.749 811.517 561.924 855.214 616.575C892.175 662.801 891.073 730.067 852.766 775.182ZM776.082 715.019L726.986 665.881C722.727 661.619 716.285 659.871 710.72 662.176C704.997 664.546 698.427 663.227 694.062 658.858L648.543 607.914C648.965 603.133 647.142 598.223 643.013 595.057C590.428 554.737 512.897 561.929 469.206 616.632C432.269 662.878 433.41 730.145 471.743 775.238C496.768 804.675 531.929 819.394 567.091 819.394C593.867 819.394 620.642 810.859 642.941 793.786C649.983 788.395 645.591 776.965 639.322 770.69C634.156 765.519 618.936 765.876 613.136 770.325C571.384 781.946 553.884 789.414 511.55 761.993C474.309 724.72 474.309 664.07 511.55 626.798C548.384 595.057 590.884 607.914 613.133 618.461C616.134 620.762 630.779 623.675 634.318 623.33L685.959 666.641C690.219 670.905 691.965 677.352 689.661 682.923C687.294 688.65 688.612 695.226 692.976 699.595L742.236 748.895C744.078 750.739 747.064 750.739 748.906 748.895L749.23 748.571C751.072 746.728 751.072 743.738 749.23 741.894L708.085 700.714C706.264 698.892 706.264 695.937 708.085 694.115C709.905 692.292 712.858 692.292 714.678 694.115L755.824 735.295C757.666 737.138 760.652 737.138 762.494 735.295C764.336 733.452 764.336 730.462 762.494 728.618L721.349 687.438C719.528 685.616 719.528 682.661 721.349 680.839C723.169 679.016 726.122 679.016 727.943 680.839L769.088 722.019C770.93 723.863 773.916 723.863 775.758 722.019L776.082 721.695C777.925 719.851 777.925 716.862 776.082 715.019Z" fill="white"/>
<path d="M1106.94 819.395H1094.86L1075.45 792.479C1070.69 796.751 1065.62 800.779 1060.25 804.563C1055 808.226 1049.45 811.46 1043.59 814.268C1037.73 816.954 1031.68 819.09 1025.46 820.677C1019.36 822.264 1013.13 823.057 1006.78 823.057C992.988 823.057 979.988 820.494 967.781 815.367C955.696 810.118 945.076 802.916 935.92 793.76C926.887 784.483 919.746 773.558 914.497 760.984C909.248 748.289 906.624 734.495 906.624 719.603C906.624 704.832 909.248 691.099 914.497 678.404C919.746 665.708 926.887 654.722 935.92 645.445C945.076 636.167 955.696 628.904 967.781 623.655C979.988 618.406 992.988 615.782 1006.78 615.782C1011.18 615.782 1015.69 616.148 1020.33 616.88C1025.09 617.613 1029.67 618.833 1034.06 620.542C1038.58 622.129 1042.79 624.266 1046.7 626.951C1050.61 629.637 1053.9 632.933 1056.59 636.839V545.286H1106.94V819.395ZM1056.59 719.603C1056.59 712.767 1055.24 706.175 1052.56 699.827C1050 693.357 1046.46 687.681 1041.94 682.798C1037.42 677.793 1032.11 673.826 1026.01 670.896C1020.03 667.845 1013.62 666.319 1006.78 666.319C999.946 666.319 993.477 667.54 987.373 669.981C981.392 672.422 976.143 675.962 971.626 680.601C967.231 685.118 963.752 690.672 961.189 697.264C958.625 703.855 957.344 711.302 957.344 719.603C957.344 726.805 958.625 733.641 961.189 740.11C963.752 746.58 967.231 752.256 971.626 757.139C976.143 762.022 981.392 765.867 987.373 768.675C993.477 771.482 999.946 772.886 1006.78 772.886C1013.62 772.886 1020.03 771.421 1026.01 768.492C1032.11 765.44 1037.42 761.473 1041.94 756.59C1046.46 751.585 1050 745.909 1052.56 739.561C1055.24 733.091 1056.59 726.438 1056.59 719.603Z" fill="white"/>
<path d="M308.288 819.395H255.737V556.822H439.575V609.373H308.288V661.924H387.023V714.476H308.288V819.395Z" fill="white"/>
<path fill-rule="evenodd" clip-rule="evenodd" d="M5.96564 236.743C25.4369 287.432 76.8248 306.866 125.917 298.692C141.193 322.12 159.352 355.463 163.448 363.051C189.591 343.11 224.649 323.727 264.919 308.258C307.764 291.8 349.2 282.574 383.191 280.587L384.654 280.025C384.654 280.025 292.438 258.294 167.621 334.845C128.091 265.553 93.9616 227.869 58.1729 196.507C66.8352 206.589 78.8677 225.31 95.4712 251.145C99.4461 257.329 103.683 263.921 108.198 270.9C2.86106 268.628 -1.24345 162.35 55.98 116.627C17.7052 131.33 -13.5052 186.055 5.96564 236.743ZM366.322 206.344C369.062 223.803 373.596 244.967 377.077 260.298C370.917 260.474 359.545 261.12 359.545 261.12C342.52 183.184 342.644 132.342 348.233 85.0857C348.549 98.3722 352.144 120.332 357.105 150.634C358.293 157.892 359.56 165.628 360.879 173.838C437.605 101.628 369.503 19.9345 296.385 24.2799C334.66 9.57724 394.481 29.3341 413.952 80.0218C433.423 130.711 408.262 179.55 366.322 206.344ZM217.276 252.188L170.74 131.042C170.12 176.125 198.591 231.561 217.276 252.188ZM277.459 229.07L230.923 107.924C230.303 153.007 258.773 208.443 277.459 229.07ZM139.466 7.46547C181.954 -8.85551 228.188 2.50107 258.54 32.5933C288.795 26.63 315.138 34.8391 321.743 42.2273C289.049 36.0656 264.362 44.9998 250.005 52.7413C221.634 23.5129 177.521 12.3317 137.092 27.8618C91.6779 45.3067 65.3769 90.8995 70.4225 137.088C58.0957 83.5501 86.7061 27.7323 139.466 7.46547ZM270.916 319.896L245.178 329.449V332.381C245.178 345.271 247.196 357.576 251.232 369.295C255.399 380.883 261.193 391.495 268.615 401.131C276.037 410.636 284.891 418.839 295.178 425.74C305.594 432.641 316.987 437.654 329.357 440.779V528.474H385.217V440.779C397.586 437.654 408.915 432.641 419.201 425.74C429.487 418.839 438.342 410.636 445.764 401.131C453.185 391.495 458.915 380.883 462.951 369.295C467.118 357.576 469.201 345.271 469.201 332.381V248.396H413.342V332.381C413.342 340.063 411.844 347.355 408.849 354.256C405.985 361.026 402.014 366.951 396.935 372.029C391.857 377.107 385.868 381.144 378.967 384.138C372.196 387.003 364.969 388.435 357.287 388.435C349.605 388.435 342.313 387.003 335.412 384.138C328.641 381.144 322.717 377.107 317.639 372.029C312.56 366.951 308.524 361.026 305.529 354.256C302.665 347.355 301.232 340.063 301.232 332.381V310.627L270.916 319.896ZM695.959 528.474H683.068L662.365 499.763C657.287 504.321 651.883 508.618 646.154 512.654C640.555 516.56 634.631 520.011 628.381 523.006C622.131 525.87 615.685 528.149 609.045 529.842C602.534 531.534 595.894 532.381 589.123 532.381C574.409 532.381 560.542 529.907 547.521 524.959C534.631 520.011 523.303 512.849 513.537 503.474C503.902 493.969 496.284 482.381 490.685 468.709C485.086 455.037 482.287 439.477 482.287 422.029C482.287 405.753 485.086 390.844 490.685 377.302C496.284 363.631 503.902 351.912 513.537 342.146C523.303 332.381 534.631 324.829 547.521 319.49C560.542 314.021 574.409 311.287 589.123 311.287C595.894 311.287 602.599 312.133 609.24 313.826C615.881 315.519 622.326 317.862 628.576 320.857C634.826 323.852 640.75 327.368 646.349 331.404C652.079 335.441 657.417 339.802 662.365 344.49L683.068 319.685H695.959V528.474ZM642.248 422.029C642.248 414.737 640.816 407.706 637.951 400.935C635.217 394.034 631.441 387.98 626.623 382.771C621.805 377.433 616.141 373.201 609.631 370.076C603.25 366.821 596.415 365.193 589.123 365.193C581.831 365.193 574.93 366.43 568.42 368.904C562.04 371.378 556.441 375.024 551.623 379.842C546.935 384.659 543.224 390.649 540.49 397.81C537.756 404.842 536.389 412.914 536.389 422.029C536.389 431.144 537.756 439.282 540.49 446.443C543.224 453.474 546.935 459.399 551.623 464.217C556.441 469.034 562.04 472.68 568.42 475.154C574.93 477.628 581.831 478.865 589.123 478.865C596.415 478.865 603.25 477.302 609.631 474.177C616.141 470.922 621.805 466.69 626.623 461.482C631.441 456.144 635.217 450.089 637.951 443.318C640.816 436.417 642.248 429.321 642.248 422.029ZM939.318 528.474H926.428L905.724 499.763C900.646 504.321 895.243 508.618 889.514 512.654C883.915 516.56 877.99 520.011 871.74 523.006C865.49 525.87 859.045 528.149 852.404 529.842C845.894 531.534 839.253 532.381 832.482 532.381C817.769 532.381 803.902 529.907 790.881 524.959C777.99 520.011 766.662 512.849 756.896 503.474C747.261 493.969 739.644 482.381 734.045 468.709C728.446 455.037 725.646 439.477 725.646 422.029C725.646 405.753 728.446 390.844 734.045 377.302C739.644 363.631 747.261 351.912 756.896 342.146C766.662 332.381 777.99 324.829 790.881 319.49C803.902 314.021 817.769 311.287 832.482 311.287C839.253 311.287 845.959 312.133 852.599 313.826C859.24 315.519 865.685 317.862 871.935 320.857C878.185 323.852 884.11 327.368 889.709 331.404C895.438 335.441 900.777 339.802 905.724 344.49L926.428 319.685H939.318V528.474ZM885.607 422.029C885.607 414.737 884.175 407.706 881.31 400.935C878.576 394.034 874.8 387.98 869.982 382.771C865.165 377.433 859.501 373.201 852.99 370.076C846.61 366.821 839.774 365.193 832.482 365.193C825.191 365.193 818.29 366.43 811.779 368.904C805.399 371.378 799.8 375.024 794.982 379.842C790.295 384.659 786.584 390.649 783.849 397.81C781.115 404.842 779.748 412.914 779.748 422.029C779.748 431.144 781.115 439.282 783.849 446.443C786.584 453.474 790.295 459.399 794.982 464.217C799.8 469.034 805.399 472.68 811.779 475.154C818.29 477.628 825.191 478.865 832.482 478.865C839.774 478.865 846.61 477.302 852.99 474.177C859.501 470.922 865.165 466.69 869.982 461.482C874.8 456.144 878.576 450.089 881.31 443.318C884.175 436.417 885.607 429.321 885.607 422.029Z" fill="white"/>
<path fill-rule="evenodd" clip-rule="evenodd" d="M1065.54 557.395C1065.54 675.584 969.732 771.396 851.543 771.396C814.416 771.396 779.497 761.941 749.063 745.308H725.942C761.862 769.365 805.064 783.396 851.543 783.396C976.359 783.396 1077.54 682.212 1077.54 557.395C1077.54 432.579 976.359 331.395 851.543 331.395C786.89 331.395 728.577 358.544 687.384 402.063H704.342C742.7 365.701 794.517 343.395 851.543 343.395C969.732 343.395 1065.54 439.206 1065.54 557.395Z" fill="white" fill-opacity="0.4"/>
<path fill-rule="evenodd" clip-rule="evenodd" d="M1205.38 557.128C1205.38 765.191 1036.71 933.86 828.651 933.86C760.185 933.86 695.984 915.596 640.655 883.673H610.388C672.809 925.478 747.883 949.86 828.651 949.86C1045.55 949.86 1221.38 774.028 1221.38 557.128C1221.38 340.228 1045.55 164.396 828.651 164.396C716.3 164.396 614.968 211.573 543.384 287.199H565.848C633.721 221.106 726.432 180.396 828.651 180.396C1036.71 180.396 1205.38 349.064 1205.38 557.128Z" fill="white"/>
</svg>
