<svg width="302" height="544" viewBox="0 0 302 544" fill="none" xmlns="http://www.w3.org/2000/svg">
<path fill-rule="evenodd" clip-rule="evenodd" d="M58.4226 1.79761C58.4226 0.80482 57.6178 0 56.625 0H8C3.58172 0 0 3.58172 0 8V56.625C0 57.6178 0.804827 58.4226 1.79763 58.4226C2.79044 58.4226 3.59527 57.6178 3.59527 56.625V11.5952C3.59527 7.17695 7.17698 3.59523 11.5953 3.59523H56.625C57.6178 3.59523 58.4226 2.79041 58.4226 1.79761ZM245.375 3.59523C244.382 3.59523 243.577 2.79041 243.577 1.79761C243.577 0.80482 244.382 0 245.375 0H294C298.418 0 302 3.58172 302 8V56.625C302 57.6178 301.195 58.4226 300.202 58.4226C299.21 58.4226 298.405 57.6178 298.405 56.625V11.5952C298.405 7.17695 294.823 3.59523 290.405 3.59523H245.375ZM300.202 485.357C299.21 485.357 298.405 486.162 298.405 487.155V532.185C298.405 536.603 294.823 540.185 290.405 540.185H245.375C244.382 540.185 243.577 540.989 243.577 541.982C243.577 542.975 244.382 543.78 245.375 543.78H294C298.418 543.78 302 540.198 302 535.78V487.155C302 486.162 301.195 485.357 300.202 485.357ZM56.625 543.78C57.6178 543.78 58.4226 542.975 58.4226 541.982C58.4226 540.989 57.6178 540.185 56.625 540.185H11.5953C7.17699 540.185 3.59527 536.603 3.59527 532.185V487.155C3.59527 486.162 2.79044 485.357 1.79763 485.357C0.804827 485.357 0 486.162 0 487.155V535.78C0 540.198 3.58172 543.78 8 543.78H56.625Z" fill="#EBBA54"/>
</svg>
