<svg width="480" height="494" viewBox="0 0 480 494" fill="none" xmlns="http://www.w3.org/2000/svg">
<path d="M380.719 269.453C380.556 269.454 380.394 269.415 380.248 269.34C380.102 269.265 379.977 269.156 379.882 269.022C379.788 268.888 379.727 268.733 379.705 268.571C379.684 268.408 379.701 268.243 379.757 268.089L390.008 239.494C390.048 239.362 390.115 239.239 390.204 239.133C390.293 239.028 390.402 238.941 390.526 238.879C390.649 238.817 390.784 238.781 390.921 238.773C391.059 238.765 391.197 238.784 391.327 238.831C391.457 238.878 391.576 238.95 391.677 239.044C391.778 239.138 391.859 239.252 391.915 239.378C391.97 239.504 392 239.641 392.001 239.779C392.003 239.917 391.976 240.054 391.923 240.181L381.677 268.776C381.607 268.974 381.477 269.145 381.305 269.266C381.134 269.388 380.929 269.453 380.719 269.453ZM398.493 281.767C398.283 281.769 398.079 281.705 397.906 281.586C397.734 281.467 397.603 281.297 397.531 281.101C397.458 280.904 397.448 280.69 397.502 280.488C397.556 280.285 397.67 280.104 397.831 279.97L421.007 260.327C421.108 260.233 421.227 260.16 421.357 260.113C421.486 260.066 421.624 260.046 421.762 260.054C421.9 260.062 422.035 260.098 422.159 260.16C422.282 260.221 422.392 260.307 422.481 260.413C422.57 260.518 422.637 260.641 422.677 260.773C422.718 260.905 422.731 261.044 422.716 261.181C422.701 261.318 422.658 261.451 422.59 261.572C422.522 261.692 422.431 261.797 422.321 261.881L399.15 281.523C398.966 281.679 398.734 281.766 398.493 281.767ZM404.4 301.919C404.266 301.93 404.132 301.916 404.003 301.875C403.875 301.835 403.757 301.77 403.654 301.683C403.551 301.597 403.466 301.491 403.404 301.372C403.342 301.253 403.304 301.123 403.292 300.989C403.281 300.855 403.295 300.721 403.336 300.593C403.376 300.465 403.441 300.346 403.528 300.243C403.614 300.14 403.72 300.055 403.839 299.993C403.958 299.931 404.088 299.893 404.222 299.882L437.436 293.852C437.702 293.804 437.976 293.864 438.198 294.018C438.42 294.172 438.572 294.408 438.62 294.674C438.668 294.94 438.608 295.215 438.454 295.437C438.299 295.659 438.063 295.811 437.797 295.858L404.583 301.883C404.523 301.9 404.462 301.912 404.4 301.919Z" fill="#EF4444"/>
<path d="M445.265 56.0102C442 56.0102 438.809 55.0422 436.095 53.2286C433.381 51.415 431.265 48.8372 430.016 45.8213C428.767 42.8054 428.44 39.4868 429.077 36.2851C429.714 33.0834 431.286 30.1425 433.594 27.8342C435.902 25.526 438.843 23.954 442.045 23.3171C445.247 22.6803 448.565 23.0072 451.581 24.2564C454.597 25.5056 457.175 27.6211 458.988 30.3354C460.802 33.0496 461.77 36.2407 461.77 39.5051C461.765 43.8809 460.024 48.0759 456.93 51.17C453.836 54.2642 449.641 56.0048 445.265 56.0102ZM445.265 25.037C442.403 25.037 439.606 25.8856 437.227 27.4754C434.848 29.0651 432.993 31.3247 431.898 33.9684C430.803 36.6121 430.517 39.5212 431.075 42.3277C431.633 45.1342 433.011 47.7122 435.034 49.7356C437.058 51.759 439.636 53.1369 442.442 53.6952C445.249 54.2534 448.158 53.9669 450.802 52.8718C453.445 51.7768 455.705 49.9224 457.295 47.5431C458.884 45.1639 459.733 42.3666 459.733 39.5051C459.729 35.6692 458.203 31.9915 455.491 29.2791C452.778 26.5667 449.101 25.0411 445.265 25.037ZM59.832 380.2C59.5623 380.198 59.304 380.09 59.1139 379.899L32.3014 353.087C32.2068 352.992 32.1317 352.88 32.0805 352.756C32.0293 352.632 32.0029 352.5 32.0029 352.366C32.0029 352.232 32.0293 352.1 32.0805 351.976C32.1317 351.852 32.2068 351.74 32.3014 351.645C32.396 351.551 32.5084 351.476 32.632 351.424C32.7557 351.373 32.8882 351.347 33.022 351.347C33.1558 351.347 33.2884 351.373 33.412 351.424C33.5356 351.476 33.648 351.551 33.7426 351.645L60.5551 378.458C60.6988 378.6 60.7967 378.782 60.8365 378.981C60.8763 379.179 60.8561 379.385 60.7786 379.572C60.701 379.758 60.5695 379.918 60.4009 380.03C60.2323 380.142 60.0343 380.201 59.832 380.2Z" fill="#EBBA54"/>
<path d="M33.0193 380.199C32.8175 380.2 32.6201 380.14 32.4523 380.027C32.2845 379.915 32.1538 379.756 32.0769 379.569C31.9999 379.382 31.9802 379.177 32.0201 378.979C32.0601 378.781 32.158 378.6 32.3013 378.458L59.1138 351.645C59.3049 351.454 59.5641 351.347 59.8344 351.347C60.1047 351.347 60.3639 351.454 60.555 351.645C60.7461 351.836 60.8535 352.096 60.8535 352.366C60.8535 352.636 60.7461 352.895 60.555 353.086L33.7425 379.899C33.6477 379.994 33.5351 380.07 33.4109 380.121C33.2868 380.173 33.1537 380.199 33.0193 380.199ZM478.708 269.104H441.822C441.643 269.105 441.467 269.059 441.311 268.97C441.156 268.88 441.027 268.752 440.937 268.597C440.847 268.442 440.8 268.266 440.8 268.087C440.799 267.908 440.846 267.732 440.936 267.577L459.381 235.631C459.471 235.476 459.599 235.348 459.754 235.258C459.908 235.169 460.084 235.122 460.262 235.122C460.441 235.122 460.616 235.169 460.771 235.258C460.926 235.348 461.054 235.476 461.143 235.631L479.589 267.577C479.678 267.732 479.725 267.907 479.725 268.086C479.725 268.265 479.678 268.44 479.589 268.595C479.499 268.75 479.371 268.878 479.216 268.968C479.062 269.057 478.886 269.104 478.708 269.104ZM443.569 267.067H476.925L460.262 238.177L443.569 267.067Z" fill="#EBBA54"/>
<path d="M14.2563 33.4219H344.913C348.582 33.4219 352.1 34.8791 354.694 37.473C357.287 40.0669 358.745 43.585 358.745 47.2534V301.308C358.745 304.61 357.433 307.777 355.098 310.112C352.763 312.447 349.596 313.759 346.293 313.759H14.2563C10.588 313.759 7.06986 312.302 4.47595 309.708C1.88205 307.114 0.424805 303.596 0.424805 299.927V47.2584C0.424805 43.5901 1.88205 40.072 4.47595 37.4781C7.06986 34.8842 10.588 33.427 14.2563 33.427V33.4219Z" fill="#88591A"/>
<path d="M0.419922 75.1196H358.745V299.922C358.745 303.59 357.288 307.108 354.694 309.702C352.1 312.296 348.582 313.753 344.913 313.753H14.2565C10.5882 313.753 7.07006 312.296 4.47616 309.702C1.88225 307.108 0.425012 303.59 0.425012 299.922V75.1196H0.419922Z" fill="#EBBA54"/>
<path d="M31.8974 62.0117C35.1572 62.0117 37.7998 59.3691 37.7998 56.1093C37.7998 52.8496 35.1572 50.207 31.8974 50.207C28.6377 50.207 25.9951 52.8496 25.9951 56.1093C25.9951 59.3691 28.6377 62.0117 31.8974 62.0117Z" fill="white"/>
<path d="M53.9736 62.0117C57.2334 62.0117 59.8759 59.3691 59.8759 56.1093C59.8759 52.8496 57.2334 50.207 53.9736 50.207C50.7138 50.207 48.0713 52.8496 48.0713 56.1093C48.0713 59.3691 50.7138 62.0117 53.9736 62.0117Z" fill="white"/>
<path d="M76.0449 62.0117C79.3047 62.0117 81.9472 59.3691 81.9472 56.1093C81.9472 52.8496 79.3047 50.207 76.0449 50.207C72.7851 50.207 70.1426 52.8496 70.1426 56.1093C70.1426 59.3691 72.7851 62.0117 76.0449 62.0117Z" fill="white"/>
<path d="M328.714 59.119H165.965C165.368 59.1392 164.772 59.0389 164.214 58.8242C163.656 58.6095 163.147 58.2847 162.717 57.8692C162.287 57.4536 161.946 56.9559 161.712 56.4055C161.479 55.8551 161.358 55.2633 161.358 54.6655C161.358 54.0676 161.479 53.4759 161.712 52.9255C161.946 52.3751 162.287 51.8773 162.717 51.4618C163.147 51.0463 163.656 50.7215 164.214 50.5068C164.772 50.292 165.368 50.1918 165.965 50.212H328.714C329.312 50.1918 329.907 50.292 330.465 50.5068C331.023 50.7215 331.532 51.0463 331.962 51.4618C332.392 51.8773 332.734 52.3751 332.967 52.9255C333.2 53.4759 333.321 54.0676 333.321 54.6655C333.321 55.2633 333.2 55.8551 332.967 56.4055C332.734 56.9559 332.392 57.4536 331.962 57.8692C331.532 58.2847 331.023 58.6095 330.465 58.8242C329.907 59.0389 329.312 59.1392 328.714 59.119Z" fill="white"/>
<path d="M262.734 151.269C269.752 151.269 275.44 145.581 275.44 138.563C275.44 131.546 269.752 125.857 262.734 125.857C255.717 125.857 250.028 131.546 250.028 138.563C250.028 145.581 255.717 151.269 262.734 151.269Z" fill="white"/>
<path d="M96.4306 151.269C103.448 151.269 109.137 145.581 109.137 138.563C109.137 131.546 103.448 125.857 96.4306 125.857C89.4133 125.857 83.7246 131.546 83.7246 138.563C83.7246 145.581 89.4133 151.269 96.4306 151.269Z" fill="white"/>
<path d="M88.3691 188.018C88.3691 190.156 89.2185 192.206 90.7303 193.718C92.2422 195.23 94.2927 196.079 96.4307 196.079C98.5688 196.079 100.619 195.23 102.131 193.718C103.643 192.206 104.492 190.156 104.492 188.018C104.492 183.562 96.4256 166.537 96.4256 166.537C96.4256 166.537 88.3691 183.562 88.3691 188.018ZM234.639 240.619C234.1 240.618 233.584 240.404 233.202 240.023C233.014 239.835 213.881 221.216 178.742 221.216C143.502 221.216 124.476 239.835 124.287 240.023C123.905 240.405 123.387 240.62 122.846 240.62C122.305 240.62 121.787 240.405 121.405 240.023C121.023 239.641 120.808 239.123 120.808 238.582C120.808 238.041 121.023 237.523 121.405 237.141C122.22 236.321 141.831 217.142 178.742 217.142C215.653 217.142 235.27 236.321 236.08 237.141C236.365 237.426 236.559 237.789 236.638 238.184C236.717 238.58 236.676 238.989 236.522 239.362C236.368 239.734 236.106 240.052 235.771 240.276C235.436 240.5 235.042 240.619 234.639 240.619ZM452.444 399.034C452.444 399.034 426.395 402.141 402.383 399.034C387.798 397.145 372.246 387.27 368.691 389.404C363.873 392.292 363.873 399.997 372.541 408.659C377.124 413.243 384.101 416.614 389.346 418.692L396.609 421.167C396.609 421.167 393.522 420.326 389.362 418.682L357.91 428.485C355.588 430.787 351.926 435.309 351.361 441.379C350.852 446.716 353.724 451.427 359.04 454.009C358.771 455.537 356.173 472.118 371.716 472.851L371.263 473.157C371.263 473.157 372.994 483.556 384.244 483.704C384.315 483.765 384.244 495.239 399.521 491.434C405.902 489.84 408.179 487.167 408.255 484.671C441.866 473.132 442.416 466.002 453.432 457.737C457.287 454.849 465.949 452.924 471.724 451.962L452.444 399.034Z" fill="white"/>
<path d="M408.159 485.735C407.915 485.739 407.679 485.655 407.492 485.498C407.305 485.342 407.181 485.124 407.141 484.884C407.101 484.644 407.148 484.398 407.274 484.19C407.4 483.981 407.596 483.825 407.828 483.749C433.026 475.092 439.529 468.981 445.824 463.002C448.025 460.845 450.353 458.822 452.795 456.942C457.037 453.764 466.357 451.849 471.531 450.978C471.79 450.948 472.052 451.019 472.26 451.176C472.469 451.333 472.61 451.564 472.653 451.822C472.696 452.08 472.638 452.344 472.492 452.56C472.346 452.777 472.122 452.929 471.867 452.985C467.844 453.657 458.061 455.531 454.018 458.587C451.636 460.418 449.368 462.39 447.224 464.494C440.772 470.605 434.105 476.91 408.49 485.695C408.382 485.725 408.27 485.739 408.159 485.735Z" fill="#015796"/>
<path d="M296.982 429.36C347.22 429.36 387.946 388.634 387.946 338.397C387.946 288.159 347.22 247.433 296.982 247.433C246.744 247.433 206.019 288.159 206.019 338.397C206.019 388.634 246.744 429.36 296.982 429.36Z" fill="#0092DF"/>
<path d="M296.982 406.515C334.603 406.515 365.1 376.018 365.1 338.397C365.1 300.776 334.603 270.278 296.982 270.278C259.361 270.278 228.863 300.776 228.863 338.397C228.863 376.018 259.361 406.515 296.982 406.515Z" fill="white"/>
<path d="M276.689 370.416L264.577 358.042L317.345 306.387L329.457 318.76L276.689 370.416Z" fill="#EF4444"/>
<path d="M263.621 316.44L275.915 304.32L327.604 356.748L315.311 368.868L263.621 316.44Z" fill="#EF4444"/>
<path d="M332.764 398.317L350.885 383.192L430.619 478.722L412.497 493.847L332.764 398.317Z" fill="#0092DF"/>
<path d="M452.444 399.034C452.444 399.034 426.395 402.141 402.384 399.034C387.793 397.145 372.246 387.27 368.686 389.404C363.873 392.292 363.873 399.997 372.536 408.659C380.735 416.858 396.609 421.177 396.609 421.177C396.609 421.177 396.609 441.395 419.714 449.095M399.496 491.445C414.896 487.595 406.33 477.465 400.988 478.677L398.259 480.012L399.496 491.445ZM400.453 478.937L397.729 480.21L388.985 469.124L391.679 468.105C391.679 468.105 398.946 465.141 403.341 467.377C405.979 468.726 410.196 473.89 400.453 478.937Z" fill="white"/>
<path d="M388.903 469.312L376.895 454.925L384.09 452.944C384.09 452.944 396.282 449.731 400.458 453.907C404.308 457.757 404.899 463.262 388.903 469.312Z" fill="white"/>
<path d="M384.106 452.939C384.055 452.965 382.141 453.53 375.958 455.404L365.264 439.535L372.572 437.539C397.566 430.802 403.341 445.234 384.106 452.939Z" fill="white"/>
<path d="M419.713 450.113C419.602 450.114 419.492 450.097 419.387 450.062C407.114 445.988 401.298 438.349 398.574 432.686C396.937 429.32 395.935 425.681 395.62 421.951C392.371 420.993 379.207 416.772 371.817 409.382C366.552 404.111 363.954 398.744 364.504 394.262C364.63 393.09 365.026 391.963 365.66 390.969C366.295 389.975 367.151 389.141 368.161 388.533C370.33 387.23 374.715 388.966 381.346 391.589C387.508 394.028 395.177 397.068 402.51 398.016C426.115 401.071 452.061 398.046 452.321 398.016C452.591 397.983 452.863 398.059 453.077 398.228C453.291 398.396 453.429 398.642 453.462 398.912C453.494 399.182 453.418 399.454 453.25 399.668C453.082 399.882 452.836 400.02 452.565 400.053C452.301 400.088 426.115 403.144 402.251 400.053C394.663 399.07 386.861 395.979 380.592 393.499C375.642 391.533 370.519 389.506 369.21 390.29C368.461 390.735 367.828 391.35 367.362 392.085C366.895 392.82 366.609 393.655 366.526 394.522C366.063 398.311 368.512 403.205 373.258 407.951C381.162 415.855 396.715 420.174 396.873 420.204C397.089 420.262 397.28 420.39 397.416 420.568C397.553 420.745 397.626 420.963 397.627 421.187C397.627 421.981 397.932 440.773 420.034 448.137C420.264 448.213 420.46 448.368 420.586 448.575C420.712 448.782 420.76 449.028 420.721 449.267C420.683 449.506 420.56 449.724 420.375 449.881C420.19 450.038 419.956 450.124 419.713 450.123V450.113ZM368.996 457.161C365.404 457.222 361.845 456.461 358.592 454.936C352.888 452.165 349.807 447.068 350.347 441.298C350.948 434.84 354.895 430.053 357.191 427.772C357.286 427.677 357.399 427.603 357.523 427.552C357.647 427.501 357.779 427.475 357.913 427.476C358.047 427.476 358.179 427.503 358.303 427.555C358.426 427.606 358.538 427.682 358.633 427.777C358.727 427.872 358.802 427.984 358.852 428.108C358.903 428.232 358.929 428.365 358.929 428.498C358.928 428.632 358.901 428.765 358.85 428.888C358.798 429.012 358.722 429.124 358.627 429.218C356.524 431.306 352.914 435.67 352.374 441.486C351.915 446.375 354.574 450.719 359.503 453.102C367.906 457.176 378.29 454.172 383.734 452.002H383.77C389.809 449.553 395.707 445.102 394.342 441.028C393.726 439.169 391.505 437.763 388.231 437.162C384.208 436.419 378.865 436.893 372.785 438.527C372.652 438.573 372.511 438.591 372.371 438.58C372.231 438.569 372.095 438.529 371.971 438.462C371.847 438.396 371.738 438.304 371.651 438.194C371.564 438.083 371.501 437.956 371.466 437.82C371.431 437.684 371.424 437.542 371.446 437.403C371.469 437.264 371.519 437.132 371.596 437.014C371.672 436.895 371.771 436.794 371.888 436.716C372.005 436.639 372.137 436.586 372.276 436.561C386.683 432.681 394.714 435.686 396.282 440.381C397.851 445.076 393.227 450.393 384.483 453.892H384.442C380.79 455.353 375.036 457.161 368.996 457.161Z" fill="#015796"/>
<path d="M372.8 473.91C368.532 473.91 365.115 472.836 362.574 470.687C355.888 465.014 357.991 454.166 358.062 453.708C358.124 453.452 358.282 453.23 358.503 453.088C358.725 452.947 358.993 452.896 359.251 452.947C359.509 452.999 359.737 453.148 359.888 453.364C360.038 453.58 360.099 453.845 360.058 454.105C360.058 454.207 358.128 464.25 363.898 469.139C368.532 473.055 376.823 472.795 388.541 468.359C398.548 464.576 401.181 461.291 401.629 459.193C401.95 457.706 401.329 456.214 399.735 454.609C396.654 451.523 387.584 453.056 384.35 453.912C384.093 453.968 383.824 453.922 383.599 453.784C383.375 453.646 383.213 453.427 383.147 453.171C383.081 452.916 383.116 452.646 383.246 452.416C383.375 452.187 383.588 452.016 383.841 451.941C386.071 451.386 388.343 451.013 390.634 450.826C395.686 450.423 399.236 451.213 401.186 453.168C403.279 455.261 404.104 457.426 403.631 459.61C402.816 463.42 398.115 466.898 389.275 470.244C382.838 472.698 377.338 473.91 372.8 473.91Z" fill="#015796"/>
<path d="M384.488 484.753C382.101 484.792 379.739 484.269 377.593 483.225C371.456 480.169 370.3 473.61 370.254 473.335C370.21 473.068 370.273 472.795 370.43 472.575C370.587 472.355 370.825 472.206 371.092 472.161C371.359 472.117 371.632 472.18 371.852 472.337C372.072 472.494 372.221 472.732 372.266 472.999C372.266 473.091 373.335 478.835 378.525 481.417C383.581 483.928 390.803 482.787 399.99 478.025C403.626 476.167 405.546 474.094 405.546 472.093C405.546 470.295 403.957 468.838 402.893 468.299C398.971 466.302 392.142 469.037 392.076 469.062C391.951 469.12 391.816 469.151 391.678 469.155C391.541 469.159 391.404 469.135 391.276 469.084C391.149 469.034 391.032 468.958 390.935 468.861C390.837 468.765 390.76 468.649 390.708 468.522C390.656 468.395 390.63 468.258 390.632 468.121C390.634 467.983 390.665 467.848 390.721 467.722C390.777 467.597 390.857 467.484 390.958 467.39C391.059 467.297 391.178 467.225 391.307 467.178C391.618 467.051 399.063 464.062 403.814 466.486C405.683 467.433 407.573 469.541 407.583 472.087C407.583 474.944 405.357 477.557 400.937 479.849C394.617 483.113 389.117 484.753 384.488 484.753Z" fill="#015796"/>
<path d="M393.888 493.242C391.021 493.242 388.669 492.534 386.856 491.124C383.291 488.348 383.25 483.938 383.25 483.75C383.25 483.479 383.357 483.22 383.548 483.029C383.739 482.838 383.998 482.731 384.269 482.731C384.539 482.731 384.798 482.838 384.989 483.029C385.18 483.22 385.287 483.479 385.287 483.75C385.287 483.8 385.358 487.391 388.129 489.535C390.538 491.399 394.275 491.714 399.246 490.472C404.929 489.051 407.796 486.591 407.114 483.724C406.533 481.295 403.442 479.181 401.212 479.686C401.081 479.715 400.946 479.719 400.814 479.697C400.682 479.674 400.556 479.626 400.443 479.555C400.33 479.484 400.232 479.391 400.154 479.282C400.077 479.173 400.022 479.05 399.992 478.919C399.962 478.789 399.958 478.654 399.981 478.522C400.003 478.39 400.051 478.264 400.123 478.151C400.194 478.037 400.286 477.939 400.396 477.862C400.505 477.784 400.628 477.729 400.758 477.7C404.114 476.936 408.244 479.686 409.095 483.25C409.558 485.196 409.579 489.988 399.74 492.448C397.829 492.949 395.864 493.216 393.888 493.242Z" fill="#015796"/>
<path d="M420.141 11.549V98.2351C420.141 101.27 418.935 104.181 416.789 106.327C414.643 108.473 411.733 109.678 408.698 109.678H368.247L357.314 126.448L346.38 109.678H305.929C304.427 109.678 302.939 109.382 301.55 108.807C300.162 108.232 298.901 107.389 297.838 106.327C296.775 105.264 295.932 104.003 295.357 102.614C294.782 101.226 294.486 99.7379 294.486 98.2351V11.549C294.486 10.0463 294.782 8.55828 295.357 7.16995C295.932 5.78161 296.775 4.52014 297.838 3.45755C298.901 2.39496 300.162 1.55208 301.55 0.977009C302.939 0.401942 304.427 0.105957 305.929 0.105957H408.698C411.733 0.105957 414.643 1.31156 416.789 3.45755C418.935 5.60354 420.141 8.51413 420.141 11.549Z" fill="#0092DF"/>
<path d="M382.207 35.6576C381.712 29.2542 378.768 23.2881 373.986 19.0005C369.205 14.7129 362.954 12.4341 356.535 12.6381C350.115 12.8421 344.022 15.5133 339.522 20.0959C335.023 24.6784 332.463 30.8195 332.376 37.2414H341.66C341.657 35.0998 342.095 32.9806 342.945 31.015C343.795 29.0494 345.04 27.2793 346.602 25.8145C348.164 24.3497 350.01 23.2213 352.027 22.4993C354.043 21.7773 356.186 21.4771 358.323 21.6173C362.106 21.8974 365.663 23.5273 368.346 26.2099C371.028 28.8926 372.658 32.4495 372.938 36.233C373.141 39.3329 372.416 42.4228 370.856 45.1092C369.296 47.7956 366.972 49.9567 364.179 51.3173C357.192 54.7344 352.675 62.139 352.675 70.1904V75.665H361.959V70.1701C361.959 65.6427 364.429 61.5127 368.253 59.6386C372.695 57.4753 376.393 54.0404 378.877 49.7703C381.362 45.5002 382.521 40.5879 382.207 35.6576ZM357.314 85.565C355.967 85.565 354.649 85.9647 353.528 86.7137C352.408 87.4626 351.534 88.5271 351.019 89.7725C350.503 91.0178 350.368 92.3882 350.632 93.7101C350.895 95.032 351.545 96.2461 352.498 97.1988C353.452 98.1515 354.666 98.8001 355.988 99.0624C357.31 99.3248 358.681 99.1891 359.925 98.6726C361.17 98.1561 362.234 97.282 362.982 96.1607C363.731 95.0395 364.129 93.7216 364.128 92.3738C364.127 90.5675 363.408 88.8357 362.131 87.5589C360.853 86.2822 359.121 85.565 357.314 85.565Z" fill="white"/>
</svg>
